<?xml version="1.0" standalone="no"?>
<!DOCTYPE svg PUBLIC "-//W3C//DTD SVG 20010904//EN"
 "http://www.w3.org/TR/2001/REC-SVG-20010904/DTD/svg10.dtd">
<svg version="1.0" xmlns="http://www.w3.org/2000/svg"
 width="272.000000pt" height="273.000000pt" viewBox="0 0 272.000000 273.000000"
 preserveAspectRatio="xMidYMid meet">

<g transform="translate(0.000000,273.000000) scale(0.100000,-0.100000)"
fill="#000000" stroke="none">
<path d="M0 1365 l0 -1365 1360 0 1360 0 0 1365 0 1365 -1360 0 -1360 0 0
-1365z m560 851 c0 -2 -9 -6 -20 -9 -11 -3 -18 -1 -14 4 5 9 34 13 34 5z m160
-4 c0 -5 -13 -7 -30 -4 -16 2 -30 6 -30 8 0 2 14 4 30 4 17 0 30 -4 30 -8z
m-80 -12 c0 -5 -5 -10 -11 -10 -5 0 -7 5 -4 10 3 6 8 10 11 10 2 0 4 -4 4 -10z
m1947 3 c-19 -5 -56 -69 -68 -118 l-7 -30 -1 29 c-1 27 34 103 54 118 6 4 17
7 25 7 10 -1 10 -3 -3 -6z m-2089 -47 c-30 -24 -46 -99 -17 -80 5 3 7 10 4 15
-4 5 -1 9 4 9 14 0 14 -17 2 -25 -6 -3 -8 -15 -6 -28 4 -21 4 -21 -15 3 -12
15 -18 34 -15 47 10 42 25 73 35 73 5 0 11 8 11 18 1 14 2 14 6 -2 3 -11 -1
-24 -9 -30z m69 22 c-3 -8 -6 -5 -6 6 -1 11 2 17 5 13 3 -3 4 -12 1 -19z m35
-10 c-8 -8 -9 -4 -5 13 4 13 8 18 11 10 2 -7 -1 -18 -6 -23z m-65 0 c-3 -8 -6
-5 -6 6 -1 11 2 17 5 13 3 -3 4 -12 1 -19z m1973 12 c0 -5 -4 -10 -10 -10 -5
0 -10 5 -10 10 0 6 5 10 10 10 6 0 10 -4 10 -10z m-1710 -20 c8 -5 12 -11 10
-14 -3 -2 -14 2 -24 10 -22 15 -10 19 14 4z m-70 -8 c0 -12 -58 -14 -65 -2 -4
6 8 10 29 10 20 0 36 -4 36 -8z m1740 4 c0 -2 -12 -11 -26 -21 -25 -16 -25
-16 -14 4 9 17 40 30 40 17z m-1888 -34 c-25 -8 -10 -82 16 -82 19 0 7 -13
-15 -16 -22 -4 -55 15 -48 26 3 4 0 10 -5 12 -8 2 -8 11 -1 28 l10 25 0 -27
c1 -38 21 -35 21 2 0 32 22 67 29 47 2 -6 -1 -13 -7 -15z m2004 -58 c-3 -29
-11 -65 -17 -81 l-11 -28 -10 25 c-12 33 -6 82 11 88 9 3 11 0 6 -8 -12 -19
-15 -64 -5 -54 15 15 25 124 11 124 -7 0 -9 5 -5 11 14 23 26 -24 20 -77z
m-1716 61 c0 -12 -19 -12 -23 0 -4 9 -1 12 9 8 7 -3 14 -7 14 -8z m-90 -5 c0
-5 -2 -10 -4 -10 -3 0 -8 5 -11 10 -3 6 -1 10 4 10 6 0 11 -4 11 -10z m115
-10 c-3 -5 -12 -10 -18 -10 -7 0 -6 4 3 10 19 12 23 12 15 0z m-53 -20 c28
-26 18 -26 -24 0 -23 14 -27 20 -15 20 10 0 27 -9 39 -20z m108 10 c0 -5 -4
-10 -10 -10 -5 0 -10 5 -10 10 0 6 5 10 10 10 6 0 10 -4 10 -10z m1510 -16 c0
-20 -13 -17 -27 5 -10 16 -9 18 8 14 10 -3 19 -12 19 -19z m-80 12 c0 -3 -4
-8 -10 -11 -5 -3 -10 -1 -10 4 0 6 5 11 10 11 6 0 10 -2 10 -4z m109 -21 c5 2
7 -6 6 -18 -1 -12 -3 -37 -4 -54 -2 -64 -18 -32 -17 34 1 37 2 59 4 50 2 -10
7 -15 11 -12z m-1749 5 c0 -5 -5 -10 -11 -10 -5 0 -7 5 -4 10 3 6 8 10 11 10
2 0 4 -4 4 -10z m61 -32 c-14 -4 -31 -15 -38 -24 -6 -9 -17 -13 -22 -9 -12 7
10 35 27 35 5 0 15 7 22 15 9 11 15 12 25 2 10 -10 8 -13 -14 -19z m1540 -26
c-6 -2 -11 -14 -11 -27 0 -13 -5 -27 -11 -30 -6 -4 -8 -13 -5 -21 3 -8 0 -14
-7 -15 -9 0 -9 -2 1 -6 17 -7 15 -23 -3 -23 -21 0 -19 21 13 101 20 53 28 66
30 48 2 -13 -1 -25 -7 -27z m26 26 c-3 -8 -6 -5 -6 6 -1 11 2 17 5 13 3 -3 4
-12 1 -19z m-1687 2 c0 -5 -5 -10 -11 -10 -5 0 -7 5 -4 10 3 6 8 10 11 10 2 0
4 -4 4 -10z m27 -5 c0 -8 -4 -15 -9 -15 -10 0 -11 14 -1 23 9 10 10 9 10 -8z
m1733 5 c0 -5 -5 -10 -11 -10 -5 0 -7 5 -4 10 3 6 8 10 11 10 2 0 4 -4 4 -10z
m73 -62 c-8 -96 11 -205 38 -229 20 -17 21 -19 3 -16 -48 10 -49 11 -52 144
-2 111 2 163 13 163 1 0 1 -28 -2 -62z m-97 -2 c-4 -20 -11 -36 -17 -36 -6 0
-7 4 -4 10 3 5 0 20 -6 32 -12 22 -11 22 6 8 17 -14 18 -13 13 13 -4 19 -2 25
4 19 6 -6 8 -26 4 -46z m-1766 40 c0 -2 -7 -6 -15 -10 -8 -3 -15 -1 -15 4 0 6
7 10 15 10 8 0 15 -2 15 -4z m30 -6 c0 -5 -5 -10 -11 -10 -5 0 -7 5 -4 10 3 6
8 10 11 10 2 0 4 -4 4 -10z m160 -5 c0 -9 -6 -12 -15 -9 -8 4 -15 10 -15 15 0
5 7 9 15 9 8 0 15 -7 15 -15z m-115 -16 c-4 -5 -13 -9 -21 -9 -8 0 -14 -4 -14
-10 0 -5 -6 -10 -13 -10 -8 0 -22 -9 -32 -20 -14 -15 -21 -17 -26 -8 -10 16 0
31 17 24 8 -3 14 -1 14 4 0 6 5 10 10 10 6 0 20 9 32 20 20 19 44 18 33 -1z
m-143 -11 c-7 -7 -12 -8 -12 -2 0 14 12 26 19 19 2 -3 -1 -11 -7 -17z m231 8
c16 -13 16 -14 -4 -19 -11 -3 -18 -10 -14 -16 3 -6 1 -11 -5 -11 -7 0 -10 -6
-7 -13 2 -6 -1 -18 -8 -24 -10 -10 -14 -9 -19 3 -3 9 -1 12 4 9 6 -3 10 3 10
15 0 12 -4 19 -8 16 -5 -3 -9 1 -9 10 0 10 7 12 20 8 17 -5 19 -3 14 15 -6 24
1 26 26 7z m-210 -31 c-3 -9 -8 -14 -10 -11 -3 3 -2 9 2 15 9 16 15 13 8 -4z
m2053 -7 c-9 -12 -16 -29 -16 -38 -1 -24 -37 -94 -43 -83 -3 5 3 22 14 39 10
16 19 39 19 51 0 12 7 29 16 37 22 23 28 20 10 -6z m-161 -145 c-2 -10 -4 -26
-4 -35 -1 -10 -5 -18 -9 -18 -10 0 -15 178 -5 193 8 13 24 -110 18 -140z m89
131 c3 -8 2 -12 -4 -9 -6 3 -10 10 -10 16 0 14 7 11 14 -7z m-2074 2 c0 -2 -7
-6 -15 -10 -8 -3 -15 -1 -15 4 0 6 7 10 15 10 8 0 15 -2 15 -4z m1718 -26 c-7
-11 -18 -20 -25 -20 -7 0 -13 -4 -13 -10 0 -5 -7 -10 -15 -10 -9 0 -31 -16
-49 -35 -20 -20 -37 -31 -41 -25 -3 5 -1 10 5 10 6 0 8 5 4 12 -4 6 -3 8 3 5
5 -3 16 3 23 14 8 10 20 19 27 19 6 0 15 9 18 20 3 11 15 20 26 20 10 0 19 5
19 10 0 6 7 10 15 10 13 0 13 -3 3 -20z m165 -19 c-7 -45 -31 -103 -32 -78 -1
11 -6 15 -13 11 -7 -4 -8 -3 -4 5 4 6 11 9 16 6 11 -7 23 49 16 73 -4 12 -1
19 8 19 11 0 13 -9 9 -36z m-1927 2 c-10 -10 -19 5 -10 18 6 11 8 11 12 0 2
-7 1 -15 -2 -18z m41 -5 c-3 -7 -5 -2 -5 12 0 14 2 19 5 13 2 -7 2 -19 0 -25z
m93 11 c0 -5 -5 -9 -11 -9 -6 0 -24 -9 -40 -21 -16 -11 -29 -17 -29 -12 0 4
-5 0 -11 -9 -5 -10 -14 -18 -20 -18 -20 0 16 38 48 51 18 7 33 19 33 26 0 7 6
10 15 7 8 -4 15 -10 15 -15z m137 -1 c-3 -8 -6 -5 -6 6 -1 11 2 17 5 13 3 -3
4 -12 1 -19z m-27 2 c0 -5 -4 -10 -10 -10 -5 0 -10 5 -10 10 0 6 5 10 10 10 6
0 10 -4 10 -10z m1860 -10 c0 -11 -4 -20 -8 -20 -4 0 -8 9 -9 20 -1 11 2 20 8
20 5 0 9 -9 9 -20z m40 10 c0 -5 -4 -10 -10 -10 -5 0 -10 5 -10 10 0 6 5 10
10 10 6 0 10 -4 10 -10z m-1930 -20 c0 -5 -4 -10 -10 -10 -5 0 -10 5 -10 10 0
6 5 10 10 10 6 0 10 -4 10 -10z m1690 0 c0 -5 -2 -10 -4 -10 -3 0 -8 5 -11 10
-3 6 -1 10 4 10 6 0 11 -4 11 -10z m-1713 -11 c9 -9 7 -17 -7 -31 -10 -11 -16
-28 -14 -37 4 -12 3 -11 -6 2 -9 14 -9 22 -1 30 16 16 13 30 -5 23 -14 -5 -15
-4 -4 9 15 18 22 19 37 4z m105 3 c-7 -5 -10 -16 -6 -25 4 -12 1 -17 -11 -17
-11 0 -15 -5 -12 -15 4 -8 2 -17 -4 -20 -5 -4 -7 -11 -4 -16 4 -5 -1 -16 -9
-25 -15 -14 -17 -14 -22 0 -3 9 -12 16 -20 16 -8 0 -14 4 -14 10 0 6 9 6 26 0
22 -9 25 -8 20 5 -3 8 -1 15 5 15 6 0 9 6 6 13 -2 6 -10 11 -16 9 -7 -1 -10 2
-6 8 3 6 11 7 17 4 8 -5 9 -1 4 11 -5 14 -4 16 8 6 11 -9 15 -7 19 9 3 11 11
20 19 20 10 0 10 -2 0 -8z m429 -11 l24 -20 -22 6 c-13 3 -23 9 -23 12 0 4
-25 3 -55 -2 -30 -6 -52 -14 -49 -19 3 -4 1 -8 -5 -8 -6 0 -19 -10 -31 -22
-11 -12 -22 -19 -25 -17 -3 3 9 19 26 35 25 24 68 41 130 53 4 0 17 -8 30 -18z
m1105 -8 c-1 -16 -3 -30 -6 -33 -3 -3 -11 -16 -18 -30 -7 -14 -10 -17 -8 -7 3
9 0 17 -6 17 -7 0 -2 9 9 20 14 12 19 27 16 40 -3 11 -1 20 4 20 5 0 9 -12 9
-27z m27 -24 c-6 -6 -7 3 -4 23 4 28 6 29 9 9 2 -13 0 -27 -5 -32z m-1313 25
c0 -8 -5 -12 -10 -9 -6 4 -8 11 -5 16 9 14 15 11 15 -7z m-50 -14 c-13 -11
-27 -20 -33 -20 -12 0 35 39 47 40 5 0 -1 -9 -14 -20z m-590 -5 c-14 -8 -32
-14 -40 -14 -8 0 -1 6 15 14 40 18 57 18 25 0z m103 -5 c3 -11 1 -20 -4 -20
-5 0 -9 9 -9 20 0 11 2 20 4 20 2 0 6 -9 9 -20z m127 10 c0 -5 -5 -10 -11 -10
-5 0 -7 5 -4 10 3 6 8 10 11 10 2 0 4 -4 4 -10z m245 0 c3 -5 1 -10 -4 -10 -6
0 -11 5 -11 10 0 6 2 10 4 10 3 0 8 -4 11 -10z m1572 -44 c-1 -30 -5 -52 -9
-49 -5 2 -8 -1 -8 -6 0 -6 -4 -11 -8 -11 -5 0 -7 13 -4 30 2 16 8 27 13 24 5
-3 9 0 9 5 0 6 -6 11 -12 11 -10 0 -10 2 0 9 7 4 12 12 11 17 -2 13 0 24 5 24
3 0 4 -24 3 -54z m-343 29 c-4 -8 -8 -15 -10 -15 -2 0 -4 7 -4 15 0 8 4 15 10
15 5 0 7 -7 4 -15z m113 9 c-3 -3 -12 -4 -19 -1 -8 3 -5 6 6 6 11 1 17 -2 13
-5z m-2117 -16 c0 -4 -4 -8 -9 -8 -6 0 -12 4 -15 8 -3 5 1 9 9 9 8 0 15 -4 15
-9z m83 6 c3 -4 2 -15 -3 -25 -11 -19 5 -69 22 -69 4 0 8 -4 8 -10 0 -19 -29
2 -39 28 -6 18 -10 21 -10 10 -1 -10 -5 -18 -10 -18 -11 0 -9 19 3 39 5 8 3
17 -5 23 -11 7 -9 8 5 4 13 -5 17 -2 12 9 -5 15 5 21 17 9z m290 -13 c-5 -19
-43 -37 -43 -20 0 5 6 9 14 9 8 0 16 7 20 15 8 22 15 19 9 -4z m-53 5 c0 -2
-7 -7 -16 -10 -8 -3 -12 -2 -9 4 6 10 25 14 25 6z m1621 -18 c-5 -13 -16 -24
-25 -26 -12 -3 -11 2 7 22 27 31 28 32 18 4z m159 3 c0 -11 5 -21 10 -23 14
-4 25 -278 12 -297 -8 -11 -16 -8 -40 16 -29 27 -31 33 -26 79 3 27 10 54 15
60 10 12 -13 44 -31 44 -4 0 -6 15 -4 33 4 30 4 31 -11 13 -8 -11 -15 -26 -15
-33 0 -7 -8 -13 -17 -13 -14 0 -15 2 -5 9 7 4 14 14 16 22 2 16 33 66 56 91
20 23 40 22 40 -1z m-1865 -1 c-3 -5 -14 -10 -23 -10 -15 0 -15 2 -2 10 20 13
33 13 25 0z m621 -7 c-2 -9 -11 -20 -22 -24 -10 -4 -13 -8 -6 -8 6 -1 12 -5
12 -11 0 -5 -7 -7 -15 -4 -11 5 -14 0 -13 -17 2 -16 -3 -24 -15 -25 -15 -2
-15 -1 -1 3 13 4 14 7 4 13 -11 7 -8 17 13 49 28 43 47 53 43 24z m-871 -17
c0 -15 -4 -21 -9 -16 -5 5 -6 16 -3 24 9 22 12 20 12 -8z m335 11 c0 -13 -53
-40 -82 -42 -35 -3 -17 13 27 24 25 6 45 16 45 21 0 6 2 10 5 10 3 0 5 -6 5
-13z m135 3 c3 -6 -1 -7 -9 -4 -18 7 -21 14 -7 14 6 0 13 -4 16 -10z m555 0
c0 -5 -5 -10 -11 -10 -5 0 -7 5 -4 10 3 6 8 10 11 10 2 0 4 -4 4 -10z m-459
-27 l24 -27 -24 15 c-14 9 -27 21 -29 27 -6 19 3 14 29 -15z m1450 3 c-13 -14
-21 -28 -18 -33 2 -4 -5 -17 -16 -28 l-20 -20 13 23 c6 13 9 26 6 30 -8 7 34
52 47 52 6 0 0 -11 -12 -24z m269 -2 c0 -22 -2 -24 -15 -14 -11 9 -12 15 -2
25 16 19 17 19 17 -11z m22 -19 c-2 -25 -7 -45 -11 -45 -7 0 -4 51 4 78 8 23
10 12 7 -33z m-2135 29 c-3 -3 -12 -4 -19 -1 -8 3 -5 6 6 6 11 1 17 -2 13 -5z
m778 -4 c3 -5 1 -10 -4 -10 -6 0 -11 5 -11 10 0 6 2 10 4 10 3 0 8 -4 11 -10z
m138 3 c-7 -2 -21 -2 -30 0 -10 3 -4 5 12 5 17 0 24 -2 18 -5z m67 -3 c0 -5
-5 -10 -11 -10 -5 0 -7 5 -4 10 3 6 8 10 11 10 2 0 4 -4 4 -10z m-656 -29 c-2
-3 -12 3 -22 13 -16 17 -16 18 5 5 12 -7 20 -15 17 -18z m-294 9 c13 -8 13
-10 -2 -10 -9 0 -20 5 -23 10 -8 13 5 13 25 0z m1704 -22 c-4 -13 -7 -29 -5
-37 1 -8 -2 -10 -10 -5 -8 5 -11 2 -6 -8 3 -9 0 -24 -7 -34 -7 -11 -12 -37
-12 -58 1 -34 5 -40 24 -41 16 -1 19 2 12 9 -5 5 -10 15 -10 21 0 5 4 3 10 -5
7 -11 11 -8 20 15 9 23 13 26 20 15 7 -11 10 -8 10 13 0 16 -4 26 -9 22 -6 -3
-9 4 -8 15 1 22 16 28 18 8 0 -10 2 -10 6 0 7 17 20 15 20 -3 0 -8 -5 -15 -11
-15 -6 0 -5 -4 3 -9 12 -8 12 -12 2 -24 -8 -11 -9 -17 -1 -22 6 -3 8 -11 5
-16 -4 -5 -1 -9 6 -9 7 0 9 -3 6 -6 -10 -10 12 -44 28 -44 21 0 30 46 14 64
-39 43 -39 44 -24 73 16 29 17 26 18 -35 0 -15 4 -21 13 -18 7 3 16 0 20 -6 4
-7 3 -8 -4 -4 -8 5 -10 -2 -6 -24 5 -20 2 -36 -8 -48 -10 -11 -14 -33 -12 -64
2 -32 -1 -48 -9 -48 -7 0 -6 -4 3 -10 13 -8 12 -10 -3 -10 -17 0 -18 6 -12 61
l7 62 -26 -5 c-18 -4 -27 0 -31 12 -4 11 -14 16 -30 14 -14 -1 -25 2 -25 7 0
17 -20 9 -21 -8 0 -14 -3 -13 -11 5 -6 12 -15 22 -20 22 -4 0 -8 20 -8 45 0
25 4 45 9 45 5 0 12 12 16 27 11 44 35 97 41 90 3 -3 2 -16 -2 -29z m266 22
c0 -5 -4 -10 -10 -10 -5 0 -10 5 -10 10 0 6 5 10 10 10 6 0 10 -4 10 -10z
m-1247 -6 c-7 -3 -9 -12 -7 -19 3 -8 -3 -27 -15 -43 -11 -16 -22 -44 -23 -61
-1 -18 -8 -37 -15 -43 -7 -6 -10 -14 -7 -19 3 -5 0 -9 -6 -9 -6 0 -10 8 -8 18
1 9 -2 23 -6 31 -7 11 -5 13 7 8 13 -5 18 2 24 31 4 20 7 41 8 45 0 4 7 12 15
17 8 5 11 12 7 16 -9 9 12 34 27 33 7 0 7 -2 -1 -5z m1504 -24 c-1 -11 -5 -20
-9 -20 -4 0 -8 9 -8 20 0 11 4 20 9 20 6 0 9 -9 8 -20z m-2097 0 c-8 -5 -19
-10 -25 -10 -5 0 -3 5 5 10 8 5 20 10 25 10 6 0 3 -5 -5 -10z m1900 0 c0 -5
-2 -10 -4 -10 -3 0 -8 5 -11 10 -3 6 -1 10 4 10 6 0 11 -4 11 -10z m40 -22 c0
-26 -9 -19 -15 11 -2 12 0 19 6 16 5 -4 9 -16 9 -27z m78 -269 c-7 -4 -16 -5
-20 -3 -4 3 -8 0 -8 -5 0 -6 -4 -11 -10 -11 -5 0 -9 3 -9 8 1 4 0 18 -1 32 -2
21 -4 19 -9 -9 -3 -19 -12 -36 -19 -37 -7 -1 -9 0 -4 2 5 2 7 18 4 34 -4 28
18 66 32 53 3 -4 6 3 6 15 0 15 -5 20 -15 16 -11 -5 -13 -2 -9 10 3 9 12 16
20 16 8 0 14 8 14 18 0 14 -2 15 -10 2 -5 -8 -12 -11 -15 -8 -4 4 -3 13 1 20
5 7 7 23 6 35 -2 11 2 24 7 28 7 4 11 -6 11 -25 0 -17 4 -29 10 -25 5 3 11
-28 13 -77 2 -62 4 -46 7 67 l4 150 3 -149 c3 -110 0 -151 -9 -157z m-1830
249 c-10 -10 -16 -23 -13 -27 2 -5 -4 -11 -15 -14 -11 -3 -20 -12 -20 -21 0
-9 -4 -16 -10 -16 -18 0 -10 32 14 55 13 12 29 32 36 45 9 16 14 19 20 10 4
-7 0 -20 -12 -32z m118 30 c5 -7 3 -8 -6 -3 -10 6 -12 4 -7 -8 9 -24 -18 -28
-33 -4 -12 20 -12 21 3 8 15 -12 17 -11 17 3 0 19 16 21 26 4z m1704 2 c0 -5
-4 -10 -10 -10 -5 0 -10 5 -10 10 0 6 5 10 10 10 6 0 10 -4 10 -10z m-2154
-10 c9 0 13 -4 10 -9 -7 -11 -44 -3 -53 12 -4 7 0 8 11 4 10 -4 24 -7 32 -7z
m2004 -11 c0 -5 -4 -9 -9 -9 -5 0 -7 -9 -4 -20 3 -11 9 -20 14 -20 5 0 6 -7 2
-16 -3 -9 0 -20 8 -25 11 -7 11 -9 -3 -9 -12 0 -19 8 -20 23 -1 12 -4 -12 -8
-53 -6 -73 -6 -73 -8 37 -2 96 0 112 13 107 8 -4 15 -10 15 -15z m60 -26 c0
-7 -4 -13 -10 -13 -5 0 -7 7 -4 15 4 8 1 15 -6 15 -6 0 -8 5 -4 11 7 12 24 -7
24 -28z m-1442 4 c2 -11 -3 -17 -14 -17 -14 0 -15 -3 -6 -12 7 -7 12 -16 12
-21 0 -5 -7 -1 -16 8 -11 10 -14 24 -10 41 7 27 29 28 34 1z m1478 -13 c-5
-39 -16 -59 -16 -28 0 23 11 64 16 64 2 0 2 -16 0 -36z m-1709 12 c-1 -6 6
-10 16 -8 9 2 17 -2 17 -8 0 -5 -4 -10 -10 -10 -5 0 -10 -6 -10 -13 0 -8 -11
-24 -25 -37 -28 -26 -32 -40 -11 -40 7 0 22 -11 32 -25 10 -14 25 -25 32 -25
10 0 10 -3 0 -14 -10 -11 -14 -10 -24 8 -6 12 -16 20 -23 18 -7 -1 -10 2 -6 8
3 5 -1 13 -10 16 -25 10 -39 44 -24 58 9 8 10 8 5 -1 -9 -16 6 -17 21 -2 6 6
9 18 6 25 -3 8 0 14 7 14 9 0 8 7 -3 23 -12 19 -13 24 -2 24 8 0 13 -5 12 -11z
m1763 6 c0 -4 -9 -8 -20 -9 -11 -1 -18 2 -15 8 7 11 35 12 35 1z m-439 -25
c-10 -9 -11 -8 -5 6 3 10 9 15 12 12 3 -3 0 -11 -7 -18z m159 7 c0 -8 -5 -12
-10 -9 -6 4 -8 11 -5 16 9 14 15 11 15 -7z m-1100 -14 c0 -5 -2 -10 -4 -10 -3
0 -8 5 -11 10 -3 6 -1 10 4 10 6 0 11 -4 11 -10z m1304 -22 c10 -38 7 -80 -5
-73 -6 4 -8 13 -5 21 3 8 1 14 -4 14 -6 0 -10 14 -10 30 0 35 15 40 24 8z
m-1753 -11 c-10 -9 -11 -8 -5 6 3 10 9 15 12 12 3 -3 0 -11 -7 -18z m257 -4
c-10 -2 -18 -11 -18 -18 0 -7 8 -16 18 -18 13 -4 12 -5 -5 -6 -27 -1 -40 -20
-22 -32 11 -7 10 -9 -4 -9 -14 0 -17 -5 -12 -20 5 -14 3 -18 -8 -14 -11 4 -10
15 7 64 17 47 25 60 41 59 17 -1 17 -2 3 -6z m174 -25 c-7 -7 -12 -8 -12 -2 0
14 12 26 19 19 2 -3 -1 -11 -7 -17z m9 -18 c-22 -19 -47 -18 -35 1 3 5 9 7 13
5 4 -3 13 -1 21 5 25 15 26 9 1 -11z m1265 -27 c0 -20 6 -39 12 -41 6 -2 8
-10 5 -18 -3 -8 0 -14 6 -14 6 0 8 -7 4 -16 -3 -8 0 -33 7 -55 12 -36 12 -41
-8 -59 -12 -11 -27 -20 -34 -20 -9 0 -9 3 2 10 13 8 12 10 -2 10 -10 0 -18 -4
-18 -10 0 -5 -4 -10 -10 -10 -5 0 -10 18 -10 40 0 31 -3 38 -15 34 -17 -7 -21
11 -5 21 6 3 11 16 11 28 1 17 3 15 9 -8 5 -21 8 -5 9 56 0 47 4 88 7 92 14
14 29 -6 30 -40z m-500 24 c-11 -7 -28 -20 -38 -29 -10 -10 -18 -13 -18 -8 0
9 59 51 70 49 3 0 -4 -6 -14 -12z m-893 -12 c-3 -9 -8 -14 -10 -11 -3 3 -2 9
2 15 9 16 15 13 8 -4z m953 -10 c-12 -9 -20 -32 -25 -67 -5 -49 -8 -53 -33
-56 -16 -2 -28 -9 -28 -17 0 -8 -6 -12 -12 -10 -17 7 -17 52 -1 52 7 0 10 -4
7 -9 -3 -4 6 -8 20 -8 24 0 26 4 24 38 -1 36 -1 36 -5 5 -5 -41 -21 -43 -19
-3 0 17 4 30 9 30 4 0 5 4 2 10 -3 6 1 7 9 4 11 -4 16 0 16 11 0 9 9 19 20 22
11 3 20 10 20 16 0 6 3 7 7 3 5 -4 0 -14 -11 -21z m702 12 c-19 -19 -65 -27
-65 -11 0 7 10 10 24 8 13 -2 23 0 23 6 0 5 7 10 16 10 13 0 13 -2 2 -13z
m-1833 -17 c3 -5 1 -10 -4 -10 -6 0 -11 5 -11 10 0 6 2 10 4 10 3 0 8 -4 11
-10z m196 -9 c-6 -10 -7 -21 -4 -25 3 -3 1 -6 -5 -6 -6 0 -9 -7 -6 -15 4 -8 1
-15 -5 -15 -6 0 -11 6 -11 14 0 8 -6 17 -12 19 -8 3 -7 6 4 6 9 1 20 10 23 21
3 11 11 20 16 20 6 0 6 -7 0 -19z m154 -33 c-1 -24 0 -28 2 -10 6 45 25 40 21
-5 -3 -33 -6 -38 -28 -38 -16 0 -24 5 -22 14 2 11 0 12 -11 3 -11 -9 -13 -7
-12 11 1 12 -3 25 -9 30 -7 5 -5 12 8 22 16 12 22 12 28 2 7 -11 12 -3 9 16
-1 5 3 6 8 3 5 -3 7 -25 6 -48z m-471 26 c3 -8 2 -12 -4 -9 -6 3 -10 10 -10
16 0 14 7 11 14 -7z m1406 -22 c0 -10 -36 -9 -46 1 -4 4 5 7 19 7 15 0 27 -4
27 -8z m496 -7 c-11 -8 -27 -15 -35 -15 -9 1 -2 7 14 15 39 18 44 18 21 0z
m-1783 -16 c-8 -8 -13 -7 -18 2 -5 8 -4 10 3 5 7 -4 12 -2 12 5 0 7 3 9 7 6 4
-4 2 -12 -4 -18z m-53 1 c0 -5 -2 -10 -4 -10 -3 0 -8 5 -11 10 -3 6 -1 10 4
10 6 0 11 -4 11 -10z m216 -47 c-3 -7 -13 -13 -21 -13 -15 0 -15 1 -1 16 15
15 13 39 -3 30 -4 -3 -13 0 -21 6 -12 8 -12 9 2 4 10 -3 20 0 24 6 9 14 27
-30 20 -49z m841 42 c0 -8 -4 -15 -9 -15 -4 0 -8 7 -8 15 0 8 4 15 8 15 5 0 9
-7 9 -15z m453 8 c-1 -13 -30 -48 -30 -36 0 7 5 15 10 18 6 4 8 11 5 16 -4 5
-1 9 4 9 6 0 11 -3 11 -7z m70 -3 c0 -5 -5 -10 -11 -10 -5 0 -7 5 -4 10 3 6 8
10 11 10 2 0 4 -4 4 -10z m-1465 -20 c2 -4 -7 -5 -20 -2 -14 2 -25 8 -25 12 0
10 38 1 45 -10z m199 5 c-4 -8 -1 -15 5 -15 6 0 11 -5 11 -11 0 -5 -5 -7 -11
-3 -8 4 -9 0 -4 -15 4 -13 2 -21 -5 -21 -6 0 -9 -4 -5 -9 3 -6 -3 -15 -12 -21
-13 -8 -14 -13 -5 -16 6 -3 12 -11 12 -16 0 -6 -3 -8 -6 -5 -13 12 -45 -36
-38 -56 4 -12 2 -17 -4 -13 -16 10 -21 56 -6 56 8 0 17 12 20 27 4 15 13 34
21 41 7 7 13 28 13 46 0 18 3 36 7 39 10 11 13 8 7 -8z m266 5 c-34 -11 -60
-11 -35 0 11 5 29 8 40 8 16 0 15 -2 -5 -8z m60 -13 c0 -6 -3 -8 -6 -4 -4 3
-21 -5 -39 -18 -23 -18 -32 -21 -32 -10 0 8 4 12 8 9 4 -2 12 4 18 13 5 10 13
18 18 18 4 0 7 3 6 7 -2 4 4 5 12 2 8 -4 15 -11 15 -17z m61 8 c19 -8 27 -14
19 -14 -18 0 -79 27 -64 28 7 1 27 -6 45 -14z m-564 -32 c-3 -10 -5 -4 -5 12
0 17 2 24 5 18 2 -7 2 -21 0 -30z m1083 22 c0 -8 -4 -15 -10 -15 -5 0 -7 7 -4
15 4 8 8 15 10 15 2 0 4 -7 4 -15z m318 -9 c-10 -7 -18 -22 -18 -33 0 -12 -6
-33 -14 -48 l-15 -28 1 31 c1 17 5 29 10 26 4 -3 8 5 8 17 0 19 -2 20 -17 8
-10 -7 -7 -1 7 14 14 14 32 26 40 26 12 0 12 -2 -2 -13z m-1428 -6 c11 -7 11
-10 2 -10 -7 0 -10 -5 -6 -12 5 -7 3 -8 -6 -3 -10 6 -12 4 -7 -8 3 -10 3 -17
-2 -17 -11 0 -24 -67 -16 -80 4 -7 14 -6 28 1 21 10 21 9 3 -5 -10 -9 -16 -22
-13 -31 4 -8 3 -15 -2 -15 -4 0 -14 18 -21 39 -10 33 -10 47 1 85 7 25 18 46
24 46 5 0 3 5 -5 10 -8 5 -10 10 -5 10 6 0 17 -5 25 -10z m396 -16 c-4 -9 -9
-15 -11 -12 -3 3 -3 13 1 22 4 9 9 15 11 12 3 -3 3 -13 -1 -22z m545 12 c-7
-8 -8 -16 -4 -18 4 -3 2 -3 -4 -2 -7 2 -16 -3 -20 -10 -5 -8 -17 -16 -28 -19
-17 -4 -16 -5 5 -6 21 -1 22 -3 10 -12 -9 -6 -11 -12 -5 -15 18 -7 5 -74 -14
-75 -10 0 -11 -2 -3 -6 18 -7 15 -33 -4 -33 -10 0 -14 -6 -10 -15 3 -8 1 -15
-4 -15 -5 0 -7 -6 -4 -14 6 -15 -33 -86 -47 -86 -13 0 -11 11 7 31 9 10 19 34
24 53 6 29 5 36 -8 36 -8 0 -12 3 -9 7 9 9 -13 34 -24 27 -5 -3 -9 -14 -9 -25
0 -10 -4 -19 -10 -19 -11 0 -3 26 17 55 7 11 13 14 13 7 0 -6 5 -12 11 -12 6
0 9 7 5 15 -3 9 0 15 9 15 18 0 20 33 4 62 -10 18 -9 20 5 15 10 -4 14 -3 11
2 -3 5 0 13 6 17 8 4 7 9 -2 15 -10 6 -8 9 9 9 12 0 22 -5 22 -12 0 -6 10 1
23 15 22 26 49 39 28 13z m-704 -18 c-3 -8 -6 -5 -6 6 -1 11 2 17 5 13 3 -3 4
-12 1 -19z m-67 2 c0 -5 -2 -10 -4 -10 -3 0 -8 5 -11 10 -3 6 -1 10 4 10 6 0
11 -4 11 -10z m132 -25 c-2 -14 -8 -25 -13 -25 -5 0 -9 -9 -9 -20 0 -12 -7
-20 -17 -20 -14 0 -15 -2 -4 -9 11 -7 9 -11 -8 -20 -14 -8 -21 -8 -21 -1 0 5
5 10 10 10 6 0 9 3 9 8 -1 4 -1 21 1 37 1 24 3 26 9 11 6 -15 10 -11 21 23 14
43 30 48 22 6z m269 25 c17 -9 19 -22 19 -100 0 -52 -4 -90 -10 -90 -5 0 -7
-8 -3 -17 4 -11 2 -15 -3 -10 -5 5 -8 52 -8 105 1 70 0 77 -3 26 -3 -66 -6
-71 -23 -67 -24 6 -24 7 -6 41 7 15 10 36 6 46 -6 18 -7 18 -13 2 -10 -24 -27
-10 -27 22 0 21 2 24 10 12 7 -10 10 -11 11 -2 1 6 3 17 4 22 1 6 3 12 4 15 2
8 21 6 42 -5z m171 -19 c-17 -17 -32 -35 -32 -40 0 -6 -4 -11 -10 -11 -5 0
-10 4 -10 9 0 14 54 69 70 70 8 1 1 -12 -18 -28z m423 19 c-3 -5 -13 -10 -21
-10 -8 0 -12 5 -9 10 3 6 13 10 21 10 8 0 12 -4 9 -10z m-348 -6 c-3 -3 -12
-4 -19 -1 -8 3 -5 6 6 6 11 1 17 -2 13 -5z m-804 -19 c-3 -9 -8 -14 -10 -11
-3 3 -2 9 2 15 9 16 15 13 8 -4z m79 -3 c-7 -2 -10 -8 -6 -13 3 -5 0 -9 -6 -9
-7 0 -10 -7 -6 -15 4 -11 -1 -15 -19 -15 -29 0 -34 27 -7 37 9 4 21 13 25 20
5 7 13 10 20 6 8 -5 8 -8 -1 -11z m1015 12 c-3 -3 -12 -4 -19 -1 -8 3 -5 6 6
6 11 1 17 -2 13 -5z m-667 -16 c0 -4 -4 -8 -8 -8 -5 0 -14 -18 -21 -40 -6 -22
-16 -40 -21 -40 -5 0 -7 -7 -4 -15 4 -8 2 -15 -4 -15 -5 0 -7 -11 -4 -25 3
-18 0 -25 -11 -25 -16 0 -30 -77 -15 -86 4 -3 8 13 8 35 0 51 16 55 18 5 2
-46 23 -94 41 -94 8 0 12 -3 8 -6 -10 -11 -47 7 -47 23 0 9 -6 13 -15 9 -9 -3
-15 0 -15 9 0 8 -8 19 -17 24 -14 8 -15 10 -3 11 13 0 13 1 0 10 -8 5 -15 17
-15 27 0 12 -7 17 -20 16 -16 -1 -14 4 14 29 32 29 35 30 42 12 9 -23 11 -8 3
23 -3 12 -13 24 -23 26 -11 3 -10 5 6 6 12 0 24 -5 26 -11 3 -7 6 -3 6 10 1
13 5 20 11 17 6 -3 10 -3 11 2 0 4 2 16 5 26 2 9 6 25 8 35 5 21 3 19 21 19 8
0 15 -4 15 -9z m-230 -55 c-11 -17 -11 -17 -6 0 3 10 7 28 7 40 2 22 2 22 6 0
2 -12 -1 -30 -7 -40z m763 27 c-7 -28 -13 -25 -13 6 0 14 4 23 9 20 5 -3 7
-15 4 -26z m71 19 c-3 -5 -14 -9 -25 -9 -21 0 -22 -5 -9 -35 7 -17 9 -17 9 -2
1 24 16 22 18 -3 1 -11 -2 -20 -6 -20 -4 0 -6 -13 -5 -30 1 -16 -1 -30 -4 -30
-11 0 -8 -184 3 -192 6 -4 1 -8 -10 -8 -19 0 -20 6 -19 102 1 90 0 94 -5 33
-5 -53 -8 -65 -15 -50 -5 11 -8 24 -7 28 1 5 -3 6 -9 2 -6 -4 -10 4 -10 19 0
14 4 26 8 26 5 0 8 10 6 23 -1 12 -3 31 -3 42 -1 17 -3 18 -12 5 -8 -12 -9
-10 -5 10 3 14 6 28 6 33 0 4 9 7 20 7 11 0 19 3 18 8 -6 21 14 47 37 48 14 1
22 -2 19 -7z m-231 -19 c3 -11 2 -22 -2 -24 -4 -3 -8 6 -9 20 -2 29 4 31 11 4z
m505 13 c-19 -5 -25 -23 -7 -23 5 0 7 -4 4 -10 -13 -21 -32 -10 -27 15 3 18
10 25 26 24 17 -1 17 -2 4 -6z m29 -15 c-3 -8 -6 -5 -6 6 -1 11 2 17 5 13 3
-3 4 -12 1 -19z m113 -3 c0 -17 -4 -23 -15 -19 -11 5 -12 11 -4 25 13 26 19
24 19 -6z m-1094 -21 c-4 -14 -9 -24 -12 -21 -3 2 -2 17 2 31 3 15 9 25 11 22
3 -3 2 -17 -1 -32z m309 -12 c2 -12 0 -24 -6 -27 -5 -4 -9 8 -9 26 0 35 8 35
15 1z m68 -9 c-3 -21 -11 -60 -19 -87 -8 -27 -14 -60 -14 -74 0 -15 -7 -26
-20 -29 -11 -3 -20 -9 -20 -14 0 -5 7 -6 15 -3 9 4 15 0 15 -10 0 -9 -4 -16
-8 -16 -18 0 1 -62 22 -70 18 -8 16 -9 -11 -7 -17 0 -31 4 -31 7 0 3 -1 21 -2
40 l-3 35 -7 -35 c-4 -21 -8 -26 -9 -14 -1 17 -6 20 -28 16 -16 -2 -25 -2 -21
2 3 4 14 9 25 10 13 2 18 12 19 33 1 38 12 56 30 49 9 -3 14 2 14 14 0 14 -5
18 -17 13 -12 -5 -15 -2 -10 10 4 9 10 23 13 31 3 7 -2 21 -11 30 -9 9 -13 16
-8 16 5 0 14 -5 20 -11 9 -9 11 -7 9 7 -4 21 20 75 38 86 21 14 25 8 19 -29z
m-703 3 c0 -8 -7 -16 -15 -20 -13 -4 -14 -2 -5 14 13 23 20 26 20 6z m40 -1
c0 -8 -7 -15 -15 -15 -8 0 -15 7 -15 15 0 8 7 15 15 15 8 0 15 -7 15 -15z
m416 3 c4 -6 3 -8 -4 -4 -6 3 -12 -3 -15 -16 -4 -20 -4 -19 -6 5 -1 28 12 36
25 15z m884 5 c0 -9 -49 -33 -64 -33 -6 1 5 9 24 20 41 22 40 22 40 13z m-125
-23 c-3 -5 -16 -15 -28 -21 -19 -9 -19 -8 3 10 28 23 34 26 25 11z m-1172 -28
c10 -10 14 -22 10 -25 -3 -4 1 -7 9 -7 9 0 21 -6 28 -14 10 -13 7 -13 -19 -3
-16 6 -32 19 -34 29 -3 10 -14 18 -26 18 -12 0 -21 5 -21 10 0 17 36 11 53 -8z
m1222 0 c-3 -3 -11 0 -18 7 -9 10 -8 11 6 5 10 -3 15 -9 12 -12z m-1083 -14
c-7 -7 -12 -8 -12 -2 0 14 12 26 19 19 2 -3 -1 -11 -7 -17z m113 4 c-3 -3 -11
0 -18 7 -9 10 -8 11 6 5 10 -3 15 -9 12 -12z m969 -12 c10 0 14 -5 11 -10 -4
-7 -13 -6 -27 1 -18 10 -20 9 -15 -4 4 -11 2 -14 -9 -10 -11 4 -12 9 -3 19 6
7 8 19 4 26 -4 7 0 5 8 -4 8 -10 22 -18 31 -18z m-1109 -1 c-7 -10 -35 -1 -35
11 0 5 9 6 20 3 11 -3 17 -9 15 -14z m291 1 c0 -11 -4 -20 -9 -20 -5 0 -7 -7
-3 -15 3 -10 -1 -15 -12 -15 -15 0 -15 -2 -2 -10 13 -9 13 -10 0 -10 -13 0
-13 -1 0 -10 13 -8 12 -10 -2 -10 -22 0 -23 28 -3 54 8 11 15 28 15 38 0 10 4
18 8 18 4 0 8 -9 8 -20z m721 -10 c2 -11 -2 -20 -7 -20 -6 0 -10 12 -10 27 0
29 12 24 17 -7z m-1137 15 c0 -7 -30 -13 -34 -7 -3 4 4 9 15 9 10 1 19 0 19
-2z m1095 -35 c3 -5 -3 -10 -15 -10 -12 0 -19 -4 -16 -9 4 -5 -7 -23 -24 -39
-35 -35 -38 -32 -9 9 11 16 17 34 13 40 -4 8 -3 9 4 5 7 -4 12 -2 12 3 0 14
27 14 35 1z m-960 -10 c-11 -5 -29 -8 -40 -8 -16 0 -15 2 5 8 34 11 60 11 35
0z m455 1 c0 -5 -7 -12 -16 -15 -14 -5 -15 -4 -4 9 14 17 20 19 20 6z m597 3
c-3 -3 -12 -4 -19 -1 -8 3 -5 6 6 6 11 1 17 -2 13 -5z m-190 -41 c-3 -10 -5
-4 -5 12 0 17 2 24 5 18 2 -7 2 -21 0 -30z m-570 5 c-3 -8 -6 -5 -6 6 -1 11 2
17 5 13 3 -3 4 -12 1 -19z m44 5 c1 -17 2 -17 6 0 2 9 8 15 13 12 12 -7 2 -35
-23 -62 -28 -32 -43 -29 -18 3 16 20 18 31 10 45 -6 13 -6 19 1 19 5 0 11 -8
11 -17z m392 2 c-3 -9 -8 -14 -10 -11 -3 3 -2 9 2 15 9 16 15 13 8 -4z m-308
-15 c-3 -5 -1 -10 5 -10 7 0 5 -6 -4 -15 -8 -8 -17 -15 -20 -15 -12 0 -6 38 7
43 18 8 19 8 12 -3z m-351 -22 c-3 -5 0 -15 6 -23 7 -8 9 -15 5 -15 -8 0 -34
31 -35 41 0 3 7 6 15 6 8 0 12 -4 9 -9z m503 6 c-3 -3 -12 -4 -19 -1 -8 3 -5
6 6 6 11 1 17 -2 13 -5z m140 -16 c-3 -8 -6 -5 -6 6 -1 11 2 17 5 13 3 -3 4
-12 1 -19z m-459 -13 c-3 -3 -9 2 -12 12 -6 14 -5 15 5 6 7 -7 10 -15 7 -18z
m123 -9 c-9 -11 -9 -15 1 -20 10 -5 10 -7 1 -12 -14 -6 -8 -49 11 -74 6 -9 2
-7 -11 3 -16 14 -21 28 -18 53 2 26 -1 34 -13 34 -12 0 -9 5 8 14 33 18 35 19
21 2z m179 -6 c0 -5 -2 -10 -4 -10 -3 0 -8 5 -11 10 -3 6 -1 10 4 10 6 0 11
-4 11 -10z m87 -20 c0 -16 -5 -30 -11 -30 -6 0 -4 -5 4 -10 8 -5 11 -10 5 -10
-5 0 -3 -4 5 -10 21 -13 5 -23 -25 -16 -22 6 -25 9 -15 21 7 9 8 15 2 15 -5 0
-15 -7 -22 -15 -7 -9 -15 -13 -17 -11 -4 4 66 96 72 96 1 0 2 -13 2 -30z m88
20 c3 5 11 10 18 10 6 0 4 -6 -5 -12 -8 -7 -20 -21 -24 -30 -7 -12 -14 -14
-24 -8 -13 8 -12 10 3 10 9 0 17 5 17 10 0 6 -4 10 -10 10 -5 0 -10 5 -10 11
0 8 4 8 14 0 10 -8 16 -9 21 -1z m-632 -15 c-3 -9 -8 -14 -10 -11 -3 3 -2 9 2
15 9 16 15 13 8 -4z m682 -7 c-2 -23 -35 -40 -35 -19 0 6 5 11 10 11 6 0 10 7
10 15 0 8 4 15 8 15 5 0 8 -10 7 -22z m108 7 c-3 -9 -8 -14 -10 -11 -3 3 -2 9
2 15 9 16 15 13 8 -4z m-473 -5 c0 -5 -4 -10 -10 -10 -5 0 -10 5 -10 10 0 6 5
10 10 10 6 0 10 -4 10 -10z m160 -20 c-7 -5 -20 -5 -29 -2 -13 5 -11 8 7 10
12 2 22 9 23 15 0 7 3 7 6 -2 3 -7 0 -17 -7 -21z m290 0 c0 -5 -2 -10 -4 -10
-3 0 -8 5 -11 10 -3 6 -1 10 4 10 6 0 11 -4 11 -10z m-603 -6 c-3 -3 -12 -4
-19 -1 -8 3 -5 6 6 6 11 1 17 -2 13 -5z m296 -48 c4 -10 1 -13 -8 -9 -8 3 -12
9 -9 14 7 12 11 11 17 -5z"/>
<path d="M540 2046 c0 -2 7 -6 15 -10 8 -3 15 -1 15 4 0 6 -7 10 -15 10 -8 0
-15 -2 -15 -4z"/>
<path d="M2157 1765 c3 -33 7 -62 9 -64 7 -8 2 74 -6 99 -5 16 -6 2 -3 -35z"/>
<path d="M2120 1790 c0 -5 5 -10 10 -10 6 0 10 5 10 10 0 6 -4 10 -10 10 -5 0
-10 -4 -10 -10z"/>
<path d="M2170 1600 c0 -53 4 -90 10 -90 6 0 10 37 10 90 0 53 -4 90 -10 90
-6 0 -10 -37 -10 -90z"/>
<path d="M2020 1555 c0 -5 5 -17 10 -25 5 -8 10 -10 10 -5 0 6 -5 17 -10 25
-5 8 -10 11 -10 5z"/>
<path d="M2252 1550 c0 -14 2 -19 5 -12 2 6 2 18 0 25 -3 6 -5 1 -5 -13z"/>
<path d="M2282 1435 c0 -16 2 -22 5 -12 2 9 2 23 0 30 -3 6 -5 -1 -5 -18z"/>
<path d="M2293 1374 c0 -17 2 -22 7 -13 5 6 6 18 3 26 -8 19 -10 16 -10 -13z"/>
<path d="M1622 1315 c0 -16 2 -22 5 -12 2 9 2 23 0 30 -3 6 -5 -1 -5 -18z"/>
<path d="M1604 1283 c3 -6 0 -14 -6 -16 -10 -4 -9 -8 2 -16 19 -13 28 16 9 33
-9 8 -10 8 -5 -1z"/>
<path d="M1762 1280 c0 -14 2 -19 5 -12 2 6 2 18 0 25 -3 6 -5 1 -5 -13z"/>
<path d="M1467 1297 c-3 -8 -1 -20 4 -28 6 -10 9 -7 9 14 0 29 -5 35 -13 14z"/>
<path d="M1451 1204 c0 -11 3 -14 6 -6 3 7 2 16 -1 19 -3 4 -6 -2 -5 -13z"/>
</g>
</svg>
