<?xml version="1.0" standalone="no"?>
<!DOCTYPE svg PUBLIC "-//W3C//DTD SVG 20010904//EN"
 "http://www.w3.org/TR/2001/REC-SVG-20010904/DTD/svg10.dtd">
<svg version="1.0" xmlns="http://www.w3.org/2000/svg"
 width="266.000000pt" height="200.000000pt" viewBox="0 0 266.000000 200.000000"
 preserveAspectRatio="xMidYMid meet">

<g transform="translate(0.000000,200.000000) scale(0.100000,-0.100000)"
fill="#000000" stroke="none">
<path d="M0 1000 l0 -1000 1330 0 1330 0 0 1000 0 1000 -1330 0 -1330 0 0
-1000z m1296 927 c11 -11 44 -8 44 3 0 6 7 10 15 10 8 0 15 -5 15 -11 0 -5 -5
-7 -10 -4 -6 3 -13 -1 -16 -9 -4 -11 -19 -16 -44 -16 -32 0 -38 3 -37 19 1 18
19 22 33 8z m127 -2 c10 2 17 -3 17 -13 0 -13 3 -12 15 4 13 16 14 16 9 2 -3
-10 -2 -18 2 -19 5 0 17 -2 26 -4 11 -2 15 2 11 11 -3 8 -9 14 -14 14 -5 0 -9
5 -9 10 0 6 9 10 20 10 11 0 20 -4 20 -8 0 -4 12 -9 28 -10 15 -1 29 -7 31
-13 2 -8 5 -8 10 -1 4 7 12 3 20 -9 7 -12 8 -18 2 -14 -6 3 -11 -1 -11 -9 0
-18 -36 -22 -42 -5 -2 6 -31 11 -71 10 -37 0 -67 4 -67 9 0 6 -9 10 -19 10
-13 0 -19 6 -18 19 1 12 5 17 12 12 5 -5 18 -7 28 -6z m-30 -160 c-3 -9 -8
-14 -10 -11 -3 3 -2 9 2 15 9 16 15 13 8 -4z m47 -16 c0 -5 -4 -9 -10 -9 -5 0
-10 6 -10 13 0 8 -4 7 -10 -3 -5 -8 -10 -10 -10 -4 0 6 3 13 6 17 8 8 34 -3
34 -14z m60 2 c0 -6 -9 -9 -19 -8 -11 0 -17 5 -15 9 7 11 34 10 34 -1z m-120
-37 c0 -8 -5 -12 -10 -9 -6 4 -8 11 -5 16 9 14 15 11 15 -7z m-440 0 c0 -14
-31 -34 -52 -34 -13 0 -29 -5 -36 -12 -9 -9 -12 -9 -12 0 0 7 5 12 10 12 6 0
10 5 10 11 0 5 -6 7 -12 3 -9 -5 -9 -2 1 9 12 16 91 25 91 11z m380 -4 c0 -5
-4 -10 -10 -10 -5 0 -10 5 -10 10 0 6 5 10 10 10 6 0 10 -4 10 -10z m10 -76
c-7 -7 -16 -11 -21 -8 -5 3 -9 -2 -9 -10 0 -9 -4 -16 -10 -16 -5 0 -10 -4 -10
-10 0 -15 29 -12 46 5 9 8 13 19 9 24 -10 17 15 23 30 7 17 -17 20 -46 5 -46
-5 0 -10 -9 -10 -20 0 -11 -4 -20 -10 -20 -5 0 -10 -9 -10 -20 0 -11 -7 -20
-15 -20 -8 0 -15 -5 -15 -11 0 -5 -5 -7 -10 -4 -6 3 -13 -1 -16 -9 -4 -9 -18
-16 -34 -16 -24 0 -28 -4 -32 -33 -3 -30 -1 -33 19 -29 18 3 23 0 23 -17 0
-33 -36 -27 -52 9 -7 17 -20 30 -28 30 -9 0 -22 9 -30 20 -20 28 -44 25 -61
-7 -11 -20 -11 -27 -1 -30 6 -3 12 -13 12 -23 0 -10 6 -21 13 -24 10 -5 10 -7
0 -12 -15 -7 -17 -50 -3 -59 13 -8 13 -42 0 -47 -5 -1 -10 -20 -12 -40 -1 -20
-5 -35 -9 -32 -4 2 -14 -3 -22 -11 -9 -8 -21 -15 -27 -15 -6 0 -20 -9 -32 -20
-16 -15 -36 -20 -75 -20 -29 0 -53 5 -53 10 0 6 -9 10 -20 10 -13 0 -20 -7
-20 -19 0 -11 -6 -22 -12 -24 -10 -4 -9 -8 2 -16 13 -10 13 -12 0 -21 -13 -8
-11 -11 8 -16 17 -5 22 -14 22 -40 0 -19 5 -34 12 -34 6 0 -2 -11 -18 -25 -27
-24 -72 -35 -60 -16 4 5 2 11 -3 13 -5 1 -11 9 -13 17 -2 8 -10 23 -18 33 -13
16 -15 16 -23 2 -14 -24 -24 -1 -19 41 2 19 9 32 14 29 5 -3 4 3 -4 15 -16 26
-28 27 -28 1 0 -11 -4 -20 -10 -20 -5 0 -10 9 -10 20 0 11 -4 20 -10 20 -5 0
-10 23 -10 50 0 52 -4 56 -55 50 -24 -2 -57 -39 -48 -53 3 -5 1 -7 -4 -4 -17
11 -53 -28 -53 -57 0 -19 -5 -26 -20 -26 -25 0 -28 44 -5 67 8 8 12 19 9 25
-4 7 -2 8 4 4 7 -4 12 -2 12 4 0 6 4 9 9 6 5 -3 9 13 9 37 0 23 0 53 2 67 1
23 2 23 10 5 8 -19 9 -19 9 3 1 23 -27 32 -33 10 -16 -54 -21 -47 -26 32 -4
72 -8 85 -22 84 -14 -1 -15 2 -5 17 7 11 15 19 20 19 4 0 6 -4 3 -8 -3 -5 1
-9 9 -9 8 0 16 4 16 9 1 4 2 14 3 21 1 6 8 11 15 9 7 -1 10 2 6 8 -5 8 -11 7
-22 -1 -12 -11 -13 -8 -7 17 8 35 15 43 21 27 3 -7 9 -13 15 -13 6 0 7 7 4 15
-3 9 1 18 9 21 8 4 15 11 15 18 0 18 46 66 64 66 9 0 16 5 16 10 0 6 9 10 20
10 25 0 27 -28 3 -37 -19 -7 -29 -16 -53 -47 -9 -12 -10 -17 -2 -12 11 6 17
-11 13 -36 -3 -19 16 -5 32 22 14 23 25 30 49 30 39 0 84 46 66 68 -6 7 -7 12
-2 11 34 -6 83 4 102 21 22 21 37 27 27 10 -3 -5 -1 -10 5 -10 6 0 8 -4 5 -10
-3 -5 -1 -10 4 -10 6 0 11 9 11 19 0 10 7 22 16 25 8 3 13 10 9 15 -3 5 -2 12
2 14 5 3 9 -8 9 -24 1 -21 -2 -29 -11 -25 -10 3 -11 -2 -5 -24 4 -16 5 -32 2
-36 -4 -4 -2 -4 5 -1 6 4 18 0 26 -8 19 -18 84 -20 90 -2 2 6 8 9 12 5 4 -4 2
-15 -6 -25 -8 -9 -9 -14 -2 -10 6 4 14 3 17 -1 3 -5 17 -7 32 -4 20 4 25 9 22
27 -3 12 1 31 9 41 12 17 13 17 13 0 0 -9 7 -25 16 -33 11 -11 12 -18 4 -23
-8 -5 -7 -10 2 -18 10 -8 14 -2 16 26 2 33 13 49 27 40 2 -2 12 7 20 20 11 14
26 22 47 22 20 0 29 4 25 13 -2 6 0 23 6 37 11 25 11 25 15 -8 2 -18 -2 -40
-8 -48z m-216 50 c9 -23 8 -24 -14 -24 -19 0 -27 20 -13 33 11 11 20 8 27 -9z
m-414 -14 c0 -5 -4 -10 -10 -10 -5 0 -10 5 -10 10 0 6 5 10 10 10 6 0 10 -4
10 -10z m540 0 c0 -5 -4 -10 -10 -10 -5 0 -10 5 -10 10 0 6 5 10 10 10 6 0 10
-4 10 -10z m-120 -96 c0 -3 -7 -12 -15 -20 -16 -17 -18 -14 -9 10 6 15 24 23
24 10z m320 -164 c0 -5 -4 -10 -10 -10 -5 0 -10 -7 -10 -16 0 -8 -6 -22 -14
-30 -14 -13 -46 -20 -46 -9 0 8 64 74 73 74 4 1 7 -3 7 -9z m-220 -60 c0 -5
-4 -10 -10 -10 -5 0 -10 5 -10 10 0 6 5 10 10 10 6 0 10 -4 10 -10z m-780 -40
c0 -5 -4 -10 -10 -10 -5 0 -10 -13 -10 -30 0 -16 -4 -30 -10 -30 -14 0 -12 48
3 65 14 17 27 19 27 5z m795 -132 c4 -4 12 -5 18 -4 7 2 9 1 5 -1 -4 -2 -4
-11 -1 -19 4 -12 8 -13 13 -4 9 14 30 5 30 -13 0 -8 -3 -8 -9 1 -7 11 -9 10
-14 -3 -4 -9 -3 -14 2 -11 11 7 63 -49 54 -58 -5 -4 -2 -6 6 -4 16 4 21 -18
22 -86 0 -27 5 -59 10 -70 8 -16 6 -16 -10 4 l-21 25 10 -28 c6 -18 7 -26 0
-22 -6 3 -10 -2 -10 -12 -1 -14 -4 -13 -15 7 l-15 25 6 -27 c8 -37 -5 -57 -23
-33 -11 16 -13 17 -13 2 0 -9 7 -20 16 -25 12 -7 13 -11 5 -17 -7 -4 -20 2
-30 14 -10 12 -24 21 -30 21 -7 0 -9 5 -5 12 4 6 3 8 -4 4 -6 -3 -22 -2 -37 4
-20 8 -27 7 -31 -5 -11 -29 -21 -14 -22 32 -1 25 -6 50 -13 53 -6 4 -10 10
-10 14 3 20 -1 26 -15 26 -9 0 -25 9 -35 21 -22 25 -26 25 -48 -2 -14 -17 -18
-19 -18 -6 0 9 4 14 8 12 9 -6 20 21 11 29 -8 9 -11 36 -4 35 20 -3 23 3 11
19 -13 15 -12 16 4 3 9 -7 17 -9 17 -4 0 17 37 53 54 53 10 0 15 4 12 9 -3 5
2 15 11 22 12 10 14 10 9 2 -4 -7 -2 -13 3 -13 6 0 11 5 11 10 0 6 6 5 14 -2
8 -7 11 -17 8 -23 -3 -5 2 -4 11 4 14 11 17 11 18 0 0 -11 2 -11 6 -1 4 10 12
7 31 -10 14 -13 21 -16 16 -8 -5 8 -9 20 -9 25 0 6 -10 11 -22 11 -13 1 -26 3
-30 4 -5 1 -12 2 -16 1 -5 -1 -6 2 -3 7 6 10 52 10 61 0z m-735 -8 c0 -5 -2
-10 -4 -10 -3 0 -8 5 -11 10 -3 6 -1 10 4 10 6 0 11 -4 11 -10z m835 -53 c-3
-13 0 -17 10 -13 8 3 14 2 14 -2 -3 -19 2 -33 10 -28 5 4 8 -2 7 -11 -2 -10 0
-31 4 -48 3 -16 3 -43 -1 -60 -5 -25 -6 -22 -8 20 -1 28 -2 58 -3 68 -1 10
-16 32 -34 50 -34 31 -36 44 -10 44 9 0 13 -8 11 -20z m-415 -43 c0 -3 -6 -12
-14 -20 -13 -12 -15 -12 -13 6 1 17 27 31 27 14z m-200 -184 c0 -5 -4 -10 -10
-10 -5 0 -10 5 -10 10 0 6 5 10 10 10 6 0 10 -4 10 -10z m270 -100 c0 -5 8
-10 17 -10 13 0 14 -3 5 -12 -15 -15 -16 -48 -2 -48 6 0 10 -9 10 -20 0 -11
-4 -20 -10 -20 -5 0 -10 -7 -10 -16 0 -8 -4 -13 -8 -10 -5 3 -15 -4 -22 -15
-14 -19 -47 -28 -35 -9 3 6 -1 10 -10 10 -18 0 -61 39 -60 55 0 6 6 19 12 30
10 17 13 17 29 5 11 -9 15 -10 10 -2 -4 7 -2 12 4 12 6 0 8 5 5 10 -4 6 -3 10
2 9 22 -4 33 3 33 21 0 11 7 20 15 20 8 0 15 -4 15 -10z m-210 -30 c0 -11 -4
-20 -8 -20 -4 0 -8 9 -9 20 -1 11 2 20 8 20 5 0 9 -9 9 -20z m-14 -54 c8 -8
14 -22 14 -30 0 -9 3 -16 8 -16 4 0 12 -8 18 -18 10 -15 8 -18 -7 -19 -13 -1
-19 5 -19 18 0 12 -7 19 -20 19 -16 0 -20 7 -20 30 0 34 5 37 26 16z m574 -86
c0 -13 -7 -20 -20 -20 -13 0 -20 7 -20 20 0 13 7 20 20 20 13 0 20 -7 20 -20z
m2 -207 c2 -22 9 -29 31 -31 15 -2 27 -8 27 -13 0 -5 14 -9 30 -9 21 0 30 5
30 16 0 8 5 12 10 9 6 -3 10 1 10 10 0 9 -5 13 -11 10 -6 -4 -5 2 3 14 16 26
28 27 28 1 0 -11 5 -20 10 -20 6 0 10 -9 10 -20 0 -11 6 -20 13 -20 8 0 7 -4
-3 -10 -13 -8 -12 -10 3 -10 28 0 87 -65 87 -95 0 -18 -4 -25 -12 -21 -7 3
-20 9 -30 12 -9 3 -18 14 -21 25 -7 25 -33 24 -40 -1 -3 -11 -12 -20 -21 -20
-9 0 -16 -8 -16 -20 0 -31 1 -35 10 -33 4 1 10 -9 13 -22 3 -21 0 -25 -19 -25
-17 0 -24 6 -24 20 0 14 -5 18 -16 13 -11 -4 -12 -8 -4 -13 9 -6 9 -9 1 -15
-7 -4 -20 2 -30 14 -10 12 -30 21 -44 21 -14 0 -27 4 -29 10 -5 16 -88 15
-100 -1 -7 -11 -11 -11 -15 -1 -6 14 -63 17 -63 2 0 -5 -13 -10 -30 -10 -17 0
-30 5 -30 13 0 9 -3 8 -9 -2 -12 -18 -34 -4 -28 18 3 14 -1 17 -19 13 -21 -4
-24 0 -24 23 0 16 -9 36 -21 46 -20 17 -20 19 -4 35 14 15 18 15 26 3 7 -11
12 -12 29 -1 11 6 25 12 31 12 6 0 24 14 39 30 15 17 35 30 43 30 9 0 18 6 21
13 5 10 7 10 12 0 7 -16 70 -17 80 -1 4 7 3 8 -4 4 -7 -4 -12 -1 -12 8 0 12
10 16 39 16 36 0 40 -3 43 -27z m236 -191 c15 11 14 10 0 -8 -10 -11 -18 -28
-18 -37 0 -10 -8 -17 -20 -17 -13 0 -20 7 -20 20 0 11 5 20 10 20 6 0 10 10
10 23 1 20 2 20 11 4 9 -15 13 -16 27 -5z"/>
<path d="M891 1541 c-27 -25 -42 -61 -25 -61 12 0 35 30 29 40 -3 6 1 7 9 4
11 -4 16 0 16 11 0 9 5 13 10 10 6 -3 10 -2 10 4 0 22 -20 19 -49 -8z"/>
<path d="M760 1528 c0 -4 7 -8 15 -8 8 0 15 4 15 8 0 5 -7 9 -15 9 -8 0 -15
-4 -15 -9z"/>
<path d="M600 1430 c0 -16 5 -30 10 -30 6 0 9 14 8 30 -1 17 -6 30 -10 30 -4
0 -8 -13 -8 -30z"/>
<path d="M820 1450 c0 -5 5 -10 10 -10 6 0 10 5 10 10 0 6 -4 10 -10 10 -5 0
-10 -4 -10 -10z"/>
<path d="M564 1432 c3 -6 2 -13 -3 -17 -6 -3 -7 -13 -4 -22 4 -11 3 -14 -5 -9
-7 4 -12 1 -12 -8 0 -9 5 -16 11 -16 5 0 7 -4 4 -10 -3 -5 1 -10 9 -10 11 0
16 9 16 30 0 17 -5 30 -11 30 -8 0 -8 4 0 14 9 11 9 16 0 22 -7 4 -9 3 -5 -4z"/>
<path d="M745 1338 c-4 -10 -14 -18 -22 -18 -8 0 -11 5 -8 13 4 6 0 4 -8 -5
-18 -23 -15 -61 6 -64 11 -1 19 7 24 24 3 15 10 30 16 33 5 4 7 13 4 20 -3 11
-6 10 -12 -3z"/>
<path d="M580 1310 c0 -5 5 -10 10 -10 6 0 10 5 10 10 0 6 -4 10 -10 10 -5 0
-10 -4 -10 -10z"/>
<path d="M640 1291 c0 -6 9 -9 19 -8 11 0 17 5 15 9 -7 11 -34 10 -34 -1z"/>
<path d="M705 1207 c-4 -10 -5 -21 -1 -24 10 -10 18 4 13 24 -4 17 -4 17 -12
0z"/>
<path d="M1125 1140 c2 -27 10 -33 12 -10 1 11 -2 22 -6 24 -4 3 -7 -4 -6 -14z"/>
<path d="M1048 1076 c-24 -29 -25 -36 -13 -46 16 -13 17 -12 19 23 1 12 6 21
12 20 5 -1 10 7 10 18 0 10 0 19 -1 19 0 0 -12 -15 -27 -34z m-1 -31 c0 -8 -4
-12 -9 -9 -5 3 -6 10 -3 15 9 13 12 11 12 -6z"/>
<path d="M1326 907 c3 -10 9 -15 12 -12 3 3 0 11 -7 18 -10 9 -11 8 -5 -6z"/>
<path d="M1297 859 c4 -13 8 -18 11 -10 2 7 -1 18 -6 23 -8 8 -9 4 -5 -13z"/>
<path d="M1300 370 c0 -5 5 -10 10 -10 6 0 10 5 10 10 0 6 -4 10 -10 10 -5 0
-10 -4 -10 -10z"/>
<path d="M1450 290 c-9 -6 -10 -10 -3 -10 6 0 15 5 18 10 8 12 4 12 -15 0z"/>
<path d="M1100 269 c0 -5 5 -7 10 -4 6 3 10 8 10 11 0 2 -4 4 -10 4 -5 0 -10
-5 -10 -11z"/>
<path d="M1280 250 c0 -5 5 -10 10 -10 6 0 10 5 10 10 0 6 -4 10 -10 10 -5 0
-10 -4 -10 -10z"/>
<path d="M1395 190 c3 -5 10 -10 16 -10 5 0 9 5 9 10 0 6 -7 10 -16 10 -8 0
-12 -4 -9 -10z"/>
</g>
</svg>
