<?xml version="1.0" standalone="no"?>
<!DOCTYPE svg PUBLIC "-//W3C//DTD SVG 20010904//EN"
 "http://www.w3.org/TR/2001/REC-SVG-20010904/DTD/svg10.dtd">
<svg version="1.0" xmlns="http://www.w3.org/2000/svg"
 width="168.000000pt" height="163.000000pt" viewBox="0 0 168.000000 163.000000"
 preserveAspectRatio="xMidYMid meet">

<g transform="translate(0.000000,163.000000) scale(0.100000,-0.100000)"
fill="#000000" stroke="none">
<path d="M0 815 l0 -815 840 0 840 0 0 815 0 815 -840 0 -840 0 0 -815z m914
399 c9 -4 16 -18 16 -34 0 -16 8 -42 17 -59 17 -28 17 -32 1 -75 -14 -37 -14
-46 -3 -46 7 0 21 -21 31 -46 10 -25 39 -75 66 -111 72 -98 61 -160 -39 -224
-75 -47 -145 -64 -202 -49 -98 27 -183 89 -197 144 -3 15 5 38 28 72 19 28 47
82 63 120 16 38 32 73 36 78 4 5 22 -3 39 -18 21 -17 43 -26 66 -26 39 0 94
24 94 42 0 6 -7 5 -17 -5 -27 -24 -68 -30 -109 -17 -30 10 -40 22 -62 68 l-25
56 21 39 c11 21 18 45 15 53 -11 29 17 44 82 44 35 0 70 -3 79 -6z m-300 -621
c31 -37 112 -83 148 -84 l23 0 -22 -11 c-13 -6 -23 -15 -23 -20 0 -12 -68 -1
-125 19 -73 26 -97 64 -79 130 5 19 9 21 28 11 11 -6 34 -26 50 -45z m536 -4
c0 -30 -7 -43 -35 -68 -36 -31 -47 -35 -119 -45 -25 -3 -43 0 -52 9 -20 19
-19 20 27 34 27 8 62 33 102 72 65 65 77 64 77 -2z"/>
<path d="M795 1160 c4 -6 11 -8 16 -5 14 9 11 15 -7 15 -8 0 -12 -5 -9 -10z"/>
<path d="M865 1160 c4 -6 11 -8 16 -5 14 9 11 15 -7 15 -8 0 -12 -5 -9 -10z"/>
</g>
</svg>
