<?xml version="1.0" standalone="no"?>
<!DOCTYPE svg PUBLIC "-//W3C//DTD SVG 20010904//EN"
 "http://www.w3.org/TR/2001/REC-SVG-20010904/DTD/svg10.dtd">
<svg version="1.0" xmlns="http://www.w3.org/2000/svg"
 width="441.000000pt" height="102.000000pt" viewBox="0 0 441.000000 102.000000"
 preserveAspectRatio="xMidYMid meet">

<g transform="translate(0.000000,102.000000) scale(0.100000,-0.100000)"
fill="#000000" stroke="none">
<path d="M2411 844 c0 -11 3 -14 6 -6 3 7 2 16 -1 19 -3 4 -6 -2 -5 -13z"/>
<path d="M172 836 c10 -7 15 -16 11 -19 -3 -4 5 -7 20 -7 34 0 40 -11 21 -39
-17 -24 -37 -20 -27 6 4 11 3 14 -5 9 -7 -4 -12 -2 -12 4 0 15 -25 7 -26 -8
-1 -7 -3 -15 -4 -19 -1 -5 -2 -11 -1 -15 0 -5 -4 -8 -10 -8 -5 0 -7 -4 -4 -10
3 -5 3 -10 -2 -10 -4 0 -8 -16 -8 -35 0 -35 8 -44 21 -24 4 8 9 7 14 -2 7 -10
11 -10 24 0 12 10 19 10 38 0 20 -11 22 -11 10 3 -8 10 -9 19 -4 22 6 3 15 -1
22 -9 14 -17 35 -21 25 -5 -3 6 -1 10 5 10 26 0 1 -26 -34 -34 -29 -8 -39 -7
-47 5 -6 10 -9 11 -9 1 0 -7 -8 -12 -17 -11 -10 1 -27 1 -37 0 -19 -1 -19 -1
0 -22 14 -15 18 -35 18 -82 -1 -114 -9 -182 -24 -200 -9 -11 -16 -41 -16 -77
l-2 -60 80 0 c74 0 79 1 67 17 -8 9 -9 14 -3 11 6 -4 15 9 21 33 5 21 6 39 2
39 -5 0 -8 3 -8 7 1 5 0 17 -1 28 -1 15 -4 13 -10 -9 -5 -16 -6 -42 -3 -57 4
-22 2 -29 -11 -29 -12 0 -16 10 -16 46 0 27 4 43 10 39 6 -3 10 1 10 9 0 8 -4
18 -10 21 -5 3 -10 14 -10 23 0 14 2 15 10 2 5 -8 12 -11 16 -7 4 4 14 1 22
-6 13 -10 15 -9 10 9 -5 20 -1 22 66 28 92 9 169 44 191 86 9 18 14 38 12 45
-3 7 -1 17 4 22 12 12 18 72 8 79 -5 3 -9 -7 -10 -23 0 -27 -1 -27 -9 -5 -5
12 -17 22 -26 22 -9 0 -14 -6 -11 -13 3 -9 -9 -6 -37 8 -40 19 -40 21 -23 38
23 23 51 14 44 -14 -4 -17 -2 -19 16 -13 12 3 28 13 35 22 8 10 12 12 12 3 0
-7 5 -9 10 -6 8 5 7 11 -1 21 -9 11 -9 14 0 14 7 0 9 5 6 10 -3 6 0 10 7 11 7
0 4 4 -7 9 -11 5 -14 9 -7 9 13 1 -39 51 -53 51 -4 0 -5 -9 -2 -19 8 -32 -49
-45 -60 -13 -8 21 -44 62 -55 62 -5 0 -6 -6 -2 -12 6 -9 3 -9 -9 0 -27 22 -64
3 -58 -31 0 -4 -3 -6 -8 -5 -5 2 -17 -6 -25 -17 l-16 -20 -12 20 c-12 19 -14
24 -17 43 -2 17 -36 49 -48 45 -6 -2 -14 1 -18 6 -3 6 -12 11 -18 11 -7 0 -4
-6 5 -14z m253 -74 c19 -11 19 -12 -3 -9 -12 2 -27 8 -33 14 -15 15 8 12 36
-5z m105 -68 c0 -8 -19 -13 -24 -6 -3 5 1 9 9 9 8 0 15 -2 15 -3z m-135 -22
c16 -11 15 -29 -1 -29 -8 0 -13 6 -10 14 3 7 1 13 -4 13 -6 0 -10 -7 -10 -15
0 -17 -45 -21 -55 -6 -3 6 4 8 15 6 12 -2 23 2 27 10 6 16 22 19 38 7z m-150
-61 c3 -5 1 -12 -5 -16 -5 -3 -10 1 -10 9 0 18 6 21 15 7z m82 3 c-3 -3 -12
-4 -19 -1 -8 3 -5 6 6 6 11 1 17 -2 13 -5z m-24 -59 c-2 -5 3 -1 11 9 9 11 16
14 16 7 0 -7 5 -9 10 -6 6 3 10 0 11 -7 0 -10 2 -10 6 0 9 23 24 12 22 -15 -4
-40 -18 -56 -35 -42 -8 6 -14 18 -14 25 0 16 -2 16 -24 8 -9 -3 -16 -11 -16
-18 0 -20 -18 -39 -29 -31 -9 5 -9 10 0 21 9 11 8 14 -4 14 -8 0 -18 -6 -20
-12 -3 -7 -6 3 -6 24 -1 32 1 36 21 30 14 -3 19 -2 14 6 -4 7 -2 12 3 12 6 0
11 8 11 18 1 13 4 11 14 -8 8 -14 12 -29 9 -35z m110 35 c4 -14 0 -20 -12 -20
-25 0 -33 11 -20 27 16 18 26 16 32 -7z m57 -43 c0 -5 -4 -5 -10 -2 -5 3 -10
14 -10 23 0 15 2 15 10 2 5 -8 10 -19 10 -23z m-20 -57 c13 -9 11 -13 -10 -30
-30 -24 -44 -25 -60 -5 -10 12 -9 15 6 16 11 1 23 1 28 0 5 -1 6 5 3 14 -7 17
10 20 33 5z m-200 -14 c0 -3 -4 -8 -10 -11 -5 -3 -10 -1 -10 4 0 6 5 11 10 11
6 0 10 -2 10 -4z m90 -21 c7 -9 19 -14 27 -11 7 3 13 1 13 -5 0 -7 -10 -9 -24
-5 -14 3 -36 2 -49 -3 -19 -8 -27 -6 -31 5 -3 8 1 14 9 14 8 0 15 5 15 10 0
15 26 12 40 -5z"/>
<path d="M335 839 c7 -11 35 -12 35 -1 0 4 -9 8 -20 9 -11 1 -18 -2 -15 -8z"/>
<path d="M2070 840 c0 -5 -7 -10 -15 -10 -8 0 -15 -4 -15 -10 0 -5 -7 -10 -15
-10 -8 0 -15 -7 -15 -15 0 -12 5 -13 18 -7 27 14 44 4 32 -18 -11 -20 -26 -18
-68 8 -21 14 -21 15 -5 28 17 13 17 13 0 14 -20 0 -37 -32 -19 -38 20 -6 14
-42 -6 -42 -27 0 -31 8 -22 40 9 33 -6 45 -28 23 -8 -7 -19 -10 -25 -6 -7 3
-3 -4 8 -17 11 -13 15 -21 9 -17 -9 5 -47 -35 -50 -54 -1 -5 -2 -10 -4 -11 -1
-2 -3 -11 -5 -20 -5 -28 12 -30 19 -3 5 21 10 24 25 16 10 -6 20 -9 22 -7 2 3
5 -9 5 -26 1 -29 0 -30 -37 -25 -44 6 -47 2 -21 -26 14 -15 17 -40 18 -125 1
-58 -2 -113 -6 -121 -21 -44 -29 -71 -36 -119 l-6 -54 188 4 c177 3 192 4 230
27 62 35 88 89 88 179 1 60 -3 76 -18 87 -10 8 -15 19 -11 25 6 9 10 9 16 -1
15 -23 11 12 -4 42 -8 14 -13 33 -11 42 1 9 -2 17 -7 17 -5 0 -9 20 -9 44 0
37 -4 45 -22 50 -18 4 -20 8 -11 17 9 9 16 9 26 1 11 -9 14 -8 14 4 0 12 -7
14 -29 10 -15 -3 -28 -1 -28 4 0 6 11 10 25 10 22 0 24 2 13 14 -7 8 -16 12
-20 10 -3 -2 -8 1 -10 7 -2 6 -12 -5 -23 -25 -14 -25 -25 -35 -41 -34 -15 2
-20 7 -16 20 2 10 8 15 13 12 13 -8 11 10 -3 25 -9 10 -10 12 -1 7 12 -7 33
22 33 46 0 11 -2 11 -9 0 -4 -8 -12 -13 -17 -12 -5 1 -13 -12 -18 -29 -11 -39
-30 -43 -25 -5 1 12 -26 24 -54 24 -17 0 -26 4 -22 10 4 6 11 8 16 5 5 -3 6 1
3 9 -7 18 -14 21 -14 6z m-145 -60 c3 -6 -1 -7 -9 -4 -18 7 -21 14 -7 14 6 0
13 -4 16 -10z m223 -39 c-7 -2 -16 -9 -20 -14 -3 -6 -5 1 -5 15 2 21 5 23 20
14 12 -8 13 -12 5 -15z m-228 -7 c0 -8 -4 -12 -10 -9 -5 3 -10 10 -10 16 0 5
5 9 10 9 6 0 10 -7 10 -16z m152 -23 c9 -15 17 -17 39 -11 22 7 28 4 38 -16 7
-15 16 -22 26 -18 21 8 19 -12 -2 -21 -28 -12 -93 -14 -93 -3 0 6 11 8 24 6
39 -8 41 20 3 30 -39 11 -50 6 -42 -18 7 -21 -10 -36 -20 -19 -4 5 -9 28 -11
50 -4 43 16 54 38 20z m143 -39 c-8 -8 -25 10 -19 20 4 6 9 5 15 -3 4 -7 6
-15 4 -17z m-254 -14 c-4 -12 -13 -24 -20 -26 -9 -3 -9 2 0 22 15 32 32 35 20
4z m309 -8 c6 -10 10 -23 9 -27 -1 -4 -1 -10 1 -13 5 -15 9 -50 5 -50 -9 0
-45 40 -45 50 0 6 -6 10 -12 10 -10 0 -10 2 0 8 7 5 10 16 6 25 -9 24 23 22
36 -3z m-290 -60 c0 -11 12 -27 28 -37 47 -30 57 -57 33 -87 -9 -10 -15 -20
-13 -22 1 -2 -1 -4 -5 -3 -5 0 -7 7 -5 16 2 10 -1 12 -9 7 -8 -4 -10 -3 -5 5
4 6 11 9 15 7 4 -3 13 -1 21 5 13 7 12 9 -2 9 -11 0 -15 6 -11 18 4 16 -5 24
-59 50 -4 1 -5 -10 -2 -25 3 -15 1 -39 -5 -53 -8 -20 -10 -10 -10 53 -1 62 2
77 14 77 8 0 15 -9 15 -20z m45 -10 c-3 -5 -11 -10 -16 -10 -6 0 -7 5 -4 10 3
6 11 10 16 10 6 0 7 -4 4 -10z m75 -10 c-12 -22 -21 -26 -17 -7 2 10 17 26 25
27 1 0 -2 -9 -8 -20z m-14 -46 c28 -30 30 -44 7 -44 -9 0 -13 3 -10 7 4 3 -2
12 -13 20 -19 13 -28 43 -14 43 4 0 17 -11 30 -26z m68 17 c3 -5 -3 -11 -14
-14 -20 -5 -26 3 -13 16 9 10 21 9 27 -2z m123 -13 c-3 -8 -6 -5 -6 6 -1 11 2
17 5 13 3 -3 4 -12 1 -19z m-102 -48 c-18 -20 -51 -28 -40 -10 4 6 10 8 15 5
5 -3 15 3 22 14 7 11 14 18 17 16 2 -3 -4 -14 -14 -25z m103 -2 c-2 -6 -10
-14 -16 -16 -7 -2 -10 2 -6 12 7 18 28 22 22 4z m-174 -29 c-8 -14 -24 -10
-24 6 0 9 6 12 15 9 8 -4 12 -10 9 -15z m172 -24 c-8 -8 -23 -15 -33 -15 -17
1 -17 2 1 15 27 21 53 21 32 0z m-306 -29 c0 -8 -4 -18 -10 -21 -5 -3 -10 3
-10 14 0 12 5 21 10 21 6 0 10 -6 10 -14z m184 5 c3 -5 -2 -12 -12 -16 -16 -6
-16 -7 2 -21 11 -7 17 -17 13 -20 -3 -4 -13 1 -23 10 -13 14 -19 14 -33 4 -13
-10 -14 -10 -4 1 14 17 6 41 -12 35 -8 -3 -11 -12 -8 -21 5 -13 3 -13 -16 -2
-11 8 -21 17 -21 22 0 4 -5 5 -10 2 -8 -5 -7 -11 1 -21 6 -7 15 -11 20 -8 12
7 11 -7 -1 -26 -9 -13 -10 -13 -10 0 0 13 -1 13 -10 0 -7 -12 -10 -11 -16 5
-4 11 -12 23 -17 26 -6 4 -7 14 -4 23 5 13 22 16 81 16 41 0 77 -4 80 -9z
m-59 -71 c3 -5 1 -10 -4 -10 -6 0 -11 5 -11 10 0 6 2 10 4 10 3 0 8 -4 11 -10z
m45 -10 c0 -5 -4 -10 -10 -10 -5 0 -10 5 -10 10 0 6 5 10 10 10 6 0 10 -4 10
-10z m45 -37 c11 -6 16 -15 12 -19 -5 -5 -12 -2 -17 5 -4 8 -15 11 -24 8 -10
-4 -16 -1 -16 7 0 16 16 16 45 -1z m-142 -10 c19 -17 20 -17 14 0 -4 9 -2 17
2 17 10 0 24 -31 17 -38 -3 -2 -13 -1 -23 3 -10 5 -21 8 -25 7 -3 -1 -9 5 -12
13 -7 20 3 19 27 -2z m88 -36 c3 -4 19 -3 35 3 25 10 27 9 14 -3 -8 -8 -31
-17 -50 -20 -30 -4 -36 -2 -37 14 -2 19 25 24 38 6z m-126 -6 c3 -5 -6 -8 -20
-7 -35 4 -44 16 -12 16 14 0 28 -4 32 -9z m80 0 c3 -5 1 -12 -5 -16 -5 -3 -10
1 -10 9 0 18 6 21 15 7z"/>
<path d="M256 824 c-4 -10 -1 -14 6 -12 15 5 23 28 10 28 -5 0 -13 -7 -16 -16z"/>
<path d="M1876 831 c-4 -5 -2 -12 3 -15 5 -4 12 -2 15 3 4 5 2 12 -3 15 -5 4
-12 2 -15 -3z"/>
<path d="M148 813 c7 -3 16 -2 19 1 4 3 -2 6 -13 5 -11 0 -14 -3 -6 -6z"/>
<path d="M441 806 c-8 -10 -9 -16 -1 -21 5 -3 10 0 10 7 0 8 4 7 11 -4 10 -19
39 -14 39 7 0 12 -21 25 -40 25 -4 0 -13 -6 -19 -14z"/>
<path d="M2800 805 c0 -8 6 -15 13 -16 6 0 24 -3 40 -5 17 -3 27 0 27 7 0 7
-3 10 -6 7 -3 -4 -21 0 -40 8 -30 13 -34 12 -34 -1z"/>
<path d="M2412 793 c11 -15 11 -16 -5 -10 -12 5 -20 1 -23 -11 -3 -9 -10 -26
-14 -37 -5 -11 -11 -43 -14 -72 -3 -29 -8 -74 -12 -101 -5 -38 -3 -50 9 -55
11 -4 14 -20 10 -79 -3 -40 -10 -89 -15 -108 -6 -19 -12 -54 -13 -78 l-1 -42
62 0 c58 0 63 2 59 20 -3 17 -1 19 16 10 10 -6 19 -13 19 -16 0 -3 -4 -2 -10
1 -6 4 -10 -10 -10 -34 0 -72 71 -105 216 -100 120 5 163 27 186 95 9 27 17
70 17 96 1 26 6 50 11 53 6 3 10 1 10 -6 0 -23 51 -79 90 -99 47 -24 144 -27
193 -6 34 14 103 85 105 108 0 7 5 31 11 53 5 22 11 64 12 93 2 47 5 53 23 50
20 -3 21 -10 24 -148 1 -80 4 -151 7 -157 3 -8 23 -13 54 -13 47 0 49 1 56 32
17 80 5 185 -19 170 -6 -3 -5 2 3 11 8 11 9 17 3 17 -6 0 -18 12 -26 28 l-15
27 6 -35 c3 -19 15 -46 25 -60 19 -24 19 -25 -4 -34 -13 -6 -24 -11 -26 -12
-2 -1 4 -14 13 -28 18 -27 14 -56 -6 -56 -6 0 -9 7 -5 15 3 8 1 15 -4 15 -4 0
-9 50 -9 110 0 98 8 133 22 98 3 -8 6 -6 6 5 1 10 9 17 21 17 11 0 21 3 21 8
1 4 3 23 5 42 2 19 6 40 8 46 2 6 0 17 -4 25 -5 8 -5 16 2 20 7 5 7 12 -1 25
-10 18 -10 18 -11 1 0 -10 -5 -15 -10 -12 -6 4 -7 11 -4 17 4 7 2 8 -4 4 -7
-4 -17 3 -24 19 -10 22 -9 28 3 36 11 7 10 9 -6 9 -12 0 -26 5 -33 12 -7 7
-12 9 -12 6 0 -4 7 -13 15 -21 13 -14 10 -15 -23 -13 -31 2 -38 -1 -39 -16 -1
-10 2 -18 8 -18 5 0 9 -4 9 -10 0 -5 -7 -6 -17 -3 -9 4 -14 2 -11 -3 8 -12 -9
-54 -21 -54 -5 0 -15 15 -22 34 -7 19 -15 35 -18 34 -21 -2 -31 4 -25 13 4 7
1 10 -6 7 -24 -8 -20 -38 7 -44 21 -6 24 -11 19 -35 -3 -16 -1 -31 6 -35 7 -4
8 -3 4 4 -4 7 -3 12 3 12 14 0 22 -16 15 -33 -3 -9 -13 -13 -25 -10 -13 4 -19
0 -19 -12 0 -18 23 -45 39 -45 5 0 10 -23 9 -52 -1 -52 -1 -53 -13 -23 -7 17
-11 33 -8 38 2 4 -1 6 -9 5 -7 -2 -12 4 -11 13 2 8 -7 20 -20 25 -12 6 -16 8
-8 7 11 -3 10 2 -3 16 -18 20 -18 21 5 40 25 21 11 28 -21 11 -12 -7 -17 -16
-13 -27 4 -11 3 -14 -5 -9 -7 4 -12 2 -12 -4 0 -8 -9 -10 -27 -5 -16 4 -38 8
-50 8 -28 1 -29 8 -3 30 20 17 27 37 12 37 -4 0 -8 14 -8 31 -2 29 -1 29 17
13 10 -9 21 -25 24 -35 4 -13 16 -19 36 -19 29 0 38 13 17 26 -7 5 -9 2 -4 -7
4 -8 0 -5 -8 5 -20 25 -20 30 0 47 15 12 16 11 10 -11 -6 -20 -5 -22 4 -8 11
19 -3 70 -19 66 -5 -2 -16 6 -24 16 -13 18 -14 18 -20 -3 -3 -13 -1 -19 5 -15
6 4 8 -1 3 -15 -4 -13 -2 -21 5 -21 6 0 8 -4 5 -10 -7 -12 -26 -14 -24 -2 3
20 -2 32 -15 32 -8 0 -18 10 -22 22 -6 20 -7 20 -19 4 -7 -9 -17 -15 -23 -14
-5 2 -11 -1 -12 -7 -1 -5 -7 -16 -13 -24 -9 -12 -9 -13 1 -7 6 4 12 3 12 -2 0
-8 -22 -22 -34 -22 -2 0 -1 11 2 25 2 14 0 25 -7 25 -5 0 -8 -6 -5 -14 3 -8 1
-17 -5 -21 -6 -3 -11 1 -11 9 0 9 -4 16 -10 16 -5 0 -9 -8 -8 -17 3 -45 -2
-65 -17 -59 -9 3 -15 0 -15 -10 0 -8 -4 -13 -9 -10 -4 3 -7 -5 -7 -17 1 -12
-3 -42 -10 -66 -7 -24 -13 -47 -12 -50 0 -3 -1 -10 -2 -16 -1 -5 -3 -14 -5
-20 -1 -5 -3 -21 -4 -35 l-3 -25 -10 28 c-5 15 -13 27 -17 27 -12 0 -1 111 14
145 7 17 15 46 18 65 3 19 7 42 9 50 2 9 -3 14 -12 11 -36 -8 -46 -8 -57 1 -7
6 -19 8 -28 5 -8 -4 -17 -2 -20 4 -4 5 -3 8 2 7 8 -3 13 5 13 23 0 15 -42 1
-59 -20 -13 -15 -13 -15 -8 2 4 11 1 17 -9 17 -24 0 -12 -35 14 -38 25 -4 30
-30 7 -39 -9 -3 -23 3 -31 13 -9 11 -13 13 -9 7 4 -8 0 -13 -9 -13 -8 0 -17 8
-19 18 -4 15 -5 15 -6 -2 -1 -13 -6 -16 -18 -12 -13 5 -11 0 6 -18 25 -27 15
-34 -20 -16 -15 9 -19 7 -20 -7 0 -11 -3 -13 -6 -5 -2 6 -8 10 -13 7 -5 -3
-11 3 -15 14 -6 20 -54 25 -56 6 -1 -5 -3 -17 -3 -25 -1 -8 -8 -40 -15 -70
-12 -50 -12 -162 -1 -200 4 -10 -4 -16 -22 -18 -16 -2 -29 0 -29 5 -2 14 -7
104 -14 243 -3 74 -10 137 -15 140 -5 3 0 14 11 24 24 20 23 23 -15 30 -24 4
-26 3 -14 -11z m683 -89 c-8 -6 -13 -13 -10 -16 3 -2 -1 -5 -9 -5 -13 0 -13 5
1 30 12 23 17 27 24 16 6 -9 4 -18 -6 -25z m-705 16 c0 -5 -5 -10 -11 -10 -5
0 -7 5 -4 10 3 6 8 10 11 10 2 0 4 -4 4 -10z m29 -53 c8 -11 4 -13 -22 -9 -27
4 -29 6 -12 13 11 4 21 8 21 8 1 1 6 -5 13 -12z m1031 3 c0 -13 -11 -13 -30 0
-12 8 -11 10 8 10 12 0 22 -4 22 -10z m-640 -20 c-11 -7 -12 -10 -2 -10 10 0
9 -4 -3 -16 -9 -9 -18 -14 -21 -11 -9 8 15 47 29 47 7 0 6 -4 -3 -10z m60 6
c0 -2 3 -11 6 -20 5 -12 0 -16 -20 -16 -28 0 -29 1 -20 24 5 14 34 24 34 12z
m224 -9 c4 4 4 0 0 -10 -8 -23 -20 -21 -27 4 -4 15 -2 18 7 10 7 -6 16 -8 20
-4z m353 -27 c2 -27 -16 -25 -27 3 -5 12 -9 16 -9 10 -1 -7 -13 -13 -28 -13
-25 0 -25 1 -9 19 14 16 23 18 45 10 16 -6 27 -18 28 -29z m-401 -17 c4 -16 2
-28 -7 -34 -20 -13 -29 -11 -29 6 0 9 6 12 15 9 10 -4 15 0 15 10 0 9 -7 19
-15 22 -8 4 -15 10 -15 15 0 19 31 -5 36 -28z m-405 18 c-21 -6 -22 -8 -7 -20
21 -18 11 -31 -23 -31 -16 0 -34 -7 -41 -15 -7 -8 -21 -15 -31 -15 -21 0 -25
15 -9 25 6 4 10 15 8 24 -2 10 2 17 7 17 6 -1 9 -14 8 -31 -1 -16 1 -24 4 -17
5 14 51 37 66 33 5 -1 6 3 2 9 -3 5 -14 10 -23 11 -25 1 17 18 43 17 16 0 16
-1 -4 -7z m52 -30 c3 -13 0 -18 -12 -16 -20 3 -28 35 -8 35 8 0 17 -9 20 -19z
m697 9 c0 -5 -4 -10 -10 -10 -5 0 -10 5 -10 10 0 6 5 10 10 10 6 0 10 -4 10
-10z m-961 -47 c0 -21 -3 -31 -6 -23 -3 8 -12 19 -19 23 -19 11 -17 25 4 30 9
3 18 5 20 6 1 0 2 -16 1 -36z m1011 7 c0 -11 -4 -20 -10 -20 -5 0 -10 9 -10
20 0 11 5 20 10 20 6 0 10 -9 10 -20z m-630 -5 c-7 -8 -16 -12 -21 -9 -13 8
-1 24 18 24 13 0 13 -3 3 -15z m675 4 c4 -6 5 -12 2 -15 -7 -7 -37 7 -37 17 0
13 27 11 35 -2z m-1105 -3 c0 -11 -19 -15 -25 -6 -3 5 1 10 9 10 9 0 16 -2 16
-4z m354 -21 c11 -8 14 -15 8 -15 -7 0 -12 -7 -12 -15 0 -8 -4 -15 -10 -15 -5
0 -10 -5 -10 -11 0 -5 5 -7 10 -4 6 3 10 -1 10 -9 0 -9 -4 -16 -9 -16 -15 0
-22 30 -11 49 7 15 4 20 -15 29 -15 7 -25 8 -25 2 0 -6 -5 -10 -11 -10 -5 0
-7 6 -3 13 5 8 2 8 -9 -2 -15 -12 -17 -11 -17 3 0 21 77 22 104 1z m106 0 c0
-8 -7 -15 -15 -15 -16 0 -20 12 -8 23 11 12 23 8 23 -8z m120 -10 c-27 -29
-43 -32 -38 -8 3 14 18 23 57 32 3 1 -6 -10 -19 -24z m193 14 c66 -34 90 -100
47 -127 -12 -7 -19 -16 -17 -20 3 -4 1 -16 -4 -27 -7 -17 -8 -17 -8 8 -1 17
-6 27 -16 27 -18 0 -18 -1 -5 -34 6 -16 6 -27 -1 -31 -5 -4 -7 -10 -4 -14 2
-5 -3 -8 -13 -7 -9 0 -19 -3 -20 -9 -16 -46 -41 -52 -70 -16 -11 14 -12 12 -9
-9 2 -14 15 -31 28 -37 l24 -13 -23 0 c-24 0 -82 49 -82 70 0 6 5 8 11 4 6 -3
22 -1 35 6 18 10 21 17 13 31 -13 25 -25 24 -32 -1 -8 -29 -37 -26 -37 5 0 14
5 25 10 25 6 0 10 9 10 20 0 11 -4 20 -10 20 -5 0 -7 7 -4 15 5 11 11 12 25 4
11 -5 17 -14 14 -20 -4 -5 1 -9 9 -9 22 0 20 16 -4 40 -27 27 -25 56 5 85 27
28 89 34 128 14z m-552 -41 c1 -7 2 -19 3 -26 0 -7 8 -17 16 -22 10 -6 11 -10
3 -10 -21 0 -53 38 -47 55 7 18 24 20 25 3z m59 -3 c29 -15 41 -45 19 -45 -5
0 -7 5 -3 12 5 8 2 9 -9 5 -11 -4 -17 -1 -17 8 0 8 -8 19 -17 24 -28 16 -5 13
27 -4z m-229 -38 c-8 -8 -11 -3 -11 19 1 25 2 27 11 11 8 -14 8 -22 0 -30z
m146 -29 c-3 -8 -6 -5 -6 6 -1 11 2 17 5 13 3 -3 4 -12 1 -19z m136 -5 c-3 -7
-9 -10 -14 -7 -14 8 -11 21 5 21 8 0 12 -6 9 -14z m-113 -39 c0 -20 -7 -17
-20 6 -9 16 -8 18 5 14 8 -4 15 -12 15 -20z m264 17 c3 -5 -3 -11 -14 -14 -20
-5 -26 3 -13 16 9 10 21 9 27 -2z m-137 -17 c-3 -3 -12 -4 -19 -1 -8 3 -5 6 6
6 11 1 17 -2 13 -5z m-64 -24 c-3 -11 -9 -17 -15 -14 -5 3 -4 12 3 20 16 19
18 18 12 -6z m217 -1 c0 -5 -6 -9 -13 -9 -8 0 -14 6 -14 14 0 8 6 12 14 9 7
-3 13 -9 13 -14z m-145 -5 c-10 -8 -21 -11 -26 -9 -4 3 -10 1 -14 -5 -9 -14
-28 -13 -23 2 4 12 38 24 67 24 9 1 8 -3 -4 -12z m486 -7 c-10 -9 -11 -8 -5 6
3 10 9 15 12 12 3 -3 0 -11 -7 -18z m-784 -22 c1 -19 -3 -35 -8 -35 -10 0 -12
53 -2 63 9 10 9 10 10 -28z m378 15 c-5 -16 -2 -20 17 -21 13 -1 29 -1 36 0 6
1 12 -5 12 -13 0 -10 -6 -13 -15 -10 -17 7 -21 -21 -5 -31 6 -3 10 -15 10 -26
0 -19 0 -19 -20 1 -11 11 -20 26 -20 34 0 8 -5 18 -12 22 -6 4 -8 3 -5 -3 4
-7 -9 -12 -36 -14 -55 -5 -89 0 -81 12 3 5 22 7 42 4 35 -6 36 -5 18 9 -11 9
-17 19 -13 22 3 3 14 -4 24 -15 23 -28 35 -27 27 3 -6 27 1 46 17 46 6 0 7 -9
4 -20z m-335 6 c0 -2 -8 -10 -17 -17 -16 -13 -17 -12 -4 4 13 16 21 21 21 13z
m66 -34 c-18 -16 -18 -16 -6 6 6 13 14 21 18 18 3 -4 -2 -14 -12 -24z m129
-12 c3 -5 -3 -10 -14 -10 -12 0 -21 5 -21 10 0 6 6 10 14 10 8 0 18 -4 21 -10z
m539 -15 c-4 -8 -8 -15 -10 -15 -2 0 -4 7 -4 15 0 8 4 15 10 15 5 0 7 -7 4
-15z m-689 -43 c-3 -3 -11 0 -18 7 -9 10 -8 11 6 5 10 -3 15 -9 12 -12z m610
-2 c3 -5 -1 -10 -9 -10 -9 0 -16 5 -16 10 0 6 4 10 9 10 6 0 13 -4 16 -10z
m322 -12 c-3 -8 -6 -5 -6 6 -1 11 2 17 5 13 3 -3 4 -12 1 -19z m-817 -34 c0
-2 -7 -4 -15 -4 -8 0 -15 4 -15 10 0 5 7 7 15 4 8 -4 15 -8 15 -10z m74 -15
c5 -5 4 -14 -2 -22 -7 -8 -8 -18 -4 -22 4 -4 -8 2 -25 15 -39 28 -40 30 -10
25 22 -4 22 -4 2 11 -19 16 -19 16 5 9 14 -4 29 -11 34 -16z m-114 1 c0 -5 -2
-10 -4 -10 -3 0 -8 5 -11 10 -3 6 -1 10 4 10 6 0 11 -4 11 -10z m-50 -9 c0 -6
-4 -13 -10 -16 -5 -3 -10 1 -10 9 0 9 5 16 10 16 6 0 10 -4 10 -9z m246 -37
c-9 -8 -11 -9 -6 -2 6 7 11 21 11 33 1 18 2 18 6 1 3 -10 -2 -25 -11 -32z
m-200 1 c-4 -11 2 -15 24 -15 16 0 31 -3 33 -7 6 -10 -51 -9 -80 1 -27 9 -20
36 9 36 14 0 18 -5 14 -15z"/>
<path d="M3070 385 c-7 -9 -9 -22 -5 -32 5 -10 8 -21 7 -24 -1 -3 10 -4 23 -1
14 2 22 8 19 13 -3 5 -10 7 -15 4 -5 -4 -9 -1 -9 5 0 7 7 9 15 6 20 -7 32 23
14 35 -20 13 -35 11 -49 -6z"/>
<path d="M3030 380 c0 -5 5 -10 10 -10 6 0 10 5 10 10 0 6 -4 10 -10 10 -5 0
-10 -4 -10 -10z"/>
<path d="M3650 780 c-9 -6 -10 -10 -3 -10 6 0 15 5 18 10 8 12 4 12 -15 0z"/>
<path d="M270 769 c0 -5 5 -7 10 -4 6 3 10 8 10 11 0 2 -4 4 -10 4 -5 0 -10
-5 -10 -11z"/>
<path d="M2810 770 c0 -6 7 -10 15 -10 8 0 15 2 15 4 0 2 -7 6 -15 10 -8 3
-15 1 -15 -4z"/>
<path d="M2882 771 c-11 -6 -10 -10 4 -15 9 -4 22 -1 28 5 8 9 8 10 -1 5 -6
-3 -13 -2 -15 4 -2 5 -9 6 -16 1z"/>
<path d="M4080 769 c0 -5 -13 -15 -30 -20 -20 -7 -30 -18 -30 -31 0 -13 -4
-17 -12 -11 -25 15 -33 10 -34 -18 -1 -17 3 -26 9 -22 6 4 8 0 4 -11 -4 -10
-7 -20 -7 -22 0 -2 -6 -4 -13 -4 -8 0 -14 -6 -15 -12 -1 -7 -4 -42 -7 -78 -3
-36 -8 -71 -11 -79 -2 -8 3 -24 11 -37 15 -23 11 -29 -16 -26 -4 1 -4 -8 -1
-20 3 -14 1 -19 -6 -14 -6 4 -10 23 -7 44 2 21 0 67 -5 103 -4 36 -4 68 1 74
12 13 11 38 -1 30 -5 -3 -10 -2 -10 4 0 7 -8 7 -24 1 -13 -5 -27 -6 -30 -3
-12 12 -6 -13 7 -26 6 -8 -1 -5 -17 5 l-29 18 7 -27 c4 -17 2 -27 -4 -27 -6 0
-9 4 -5 10 3 5 -7 8 -25 5 -28 -3 -38 4 -23 18 3 4 12 2 18 -3 9 -8 14 -4 19
15 4 14 13 25 22 25 8 0 13 4 9 9 -3 5 2 16 10 25 8 8 11 17 6 20 -15 10 -41
-5 -41 -23 0 -14 -2 -14 -10 -1 -6 10 -6 16 0 18 18 7 10 23 -8 18 -13 -5 -19
-1 -19 11 0 10 5 21 10 24 5 4 7 15 3 25 -7 17 -9 16 -23 -9 l-15 -29 -22 21
-23 22 -24 -22 c-18 -15 -19 -19 -6 -15 11 3 16 2 12 -4 -7 -11 5 -17 45 -24
14 -3 27 -5 29 -5 2 -1 -4 -10 -14 -21 -14 -15 -15 -23 -6 -34 9 -11 9 -15 -1
-19 -10 -4 -10 -6 0 -6 21 -2 14 -41 -8 -41 -11 0 -20 5 -20 11 0 8 -5 7 -15
-1 -11 -9 -19 -10 -26 -3 -15 15 23 27 54 18 l22 -7 -23 17 c-18 13 -34 15
-68 10 -52 -7 -57 5 -18 42 27 25 34 23 48 -12 2 -6 9 -5 17 3 12 11 12 13 -1
10 -9 -2 -16 5 -16 17 -1 11 -2 24 -3 30 -1 5 -6 4 -13 -3 -19 -19 -38 -14
-38 9 0 13 -4 18 -12 13 -8 -5 -9 -2 -5 9 4 11 1 17 -7 17 -10 0 -13 -10 -10
-34 2 -25 -1 -34 -9 -30 -8 3 -13 -6 -15 -22 -1 -15 -6 -32 -11 -38 -6 -7 -12
-24 -15 -40 -3 -15 -10 -44 -17 -64 -7 -20 -13 -71 -13 -112 -1 -65 3 -81 26
-122 46 -77 143 -107 250 -78 37 11 108 80 108 107 0 7 7 13 17 13 9 0 13 -3
10 -7 -4 -3 -2 -12 4 -20 9 -9 8 -13 0 -13 -6 0 -11 -14 -11 -31 0 -42 44 -59
150 -59 87 0 133 14 164 49 24 26 46 86 46 123 0 15 4 38 10 52 7 19 5 29 -7
42 -14 13 -14 17 -2 25 12 7 12 9 -1 9 -12 0 -15 15 -14 86 2 65 -1 87 -12 91
-8 3 -12 8 -10 12 2 3 -6 15 -17 26 -11 11 -17 14 -13 8 4 -8 2 -13 -6 -13 -9
0 -9 -3 2 -10 10 -7 11 -10 3 -11 -7 -1 -19 -2 -25 -3 -7 -1 -16 2 -19 7 -4 5
-16 4 -29 -3 -12 -6 -24 -9 -27 -6 -3 3 -12 -2 -20 -12 -10 -13 -12 -14 -8 -1
3 8 1 28 -4 42 -10 25 -7 29 15 26 10 -1 23 24 18 33 -7 12 -24 10 -24 -3z
m140 -155 c0 -1 -11 -1 -25 1 -16 1 -25 -3 -25 -11 0 -8 -6 -14 -12 -15 -7 0
-4 -5 7 -10 13 -6 -5 -7 -55 -5 -41 2 -80 0 -86 -5 -8 -6 -14 -4 -18 6 -4 11
3 19 20 25 14 6 23 14 20 18 -3 5 20 8 49 8 30 -1 55 2 55 6 0 14 36 13 53 -2
9 -8 17 -15 17 -16z m-594 -50 c-22 -15 -36 -18 -36 -6 0 9 43 30 50 24 3 -2
-4 -10 -14 -18z m624 7 c0 -6 -4 -13 -10 -16 -5 -3 -10 -2 -10 3 0 6 -9 8 -20
5 -11 -3 -20 0 -20 6 0 6 14 11 30 11 17 0 30 -4 30 -9z m-250 -10 c0 -5 -7
-11 -15 -15 -15 -5 -20 5 -8 17 9 10 23 9 23 -2z m-163 -28 c-3 -3 -11 -2 -17
2 -9 6 -9 10 1 16 14 8 27 -7 16 -18z m-118 1 c2 -2 -3 -4 -12 -4 -9 0 -17 -4
-17 -10 0 -5 5 -10 10 -10 6 0 10 -5 10 -11 0 -5 -4 -7 -10 -4 -5 3 -10 -3
-10 -13 0 -21 -18 -32 -51 -32 -23 0 -25 15 -3 24 24 9 31 7 14 -4 -13 -8 -12
-10 3 -10 10 0 22 10 26 23 12 30 -5 47 -22 22 -11 -14 -16 -15 -22 -5 -6 10
-13 7 -27 -11 -17 -22 -18 -22 -9 -2 18 37 60 64 90 56 14 -3 28 -7 30 -9z
m166 6 c3 -5 1 -10 -4 -10 -6 0 -11 5 -11 10 0 6 2 10 4 10 3 0 8 -4 11 -10z
m175 -16 c-14 -37 -13 -43 15 -50 14 -3 22 -10 19 -15 -3 -5 -10 -6 -16 -3 -7
5 -9 0 -6 -14 5 -18 3 -19 -16 -11 -11 5 -29 12 -38 15 -24 8 -23 18 5 37 l22
16 -24 -6 c-21 -5 -22 -4 -12 16 7 12 16 19 22 16 5 -4 9 1 9 9 0 9 7 16 15
16 11 0 12 -5 5 -26z m-511 -15 c-14 -28 -27 -31 -22 -5 3 12 11 23 18 23 10
0 11 -5 4 -18z m221 1 c0 -13 5 -18 15 -14 21 8 19 -2 -5 -26 -20 -20 -80 -28
-80 -11 0 5 8 8 18 7 20 -4 32 11 32 42 0 12 5 22 10 22 6 0 10 -9 10 -20z
m386 11 c-4 -5 0 -11 6 -14 10 -4 11 -7 1 -18 -11 -11 -13 -10 -13 4 0 9 -5
17 -11 17 -5 0 -7 5 -4 10 3 6 11 10 16 10 6 0 8 -4 5 -9z m66 -53 c-7 -7 -12
-8 -12 -2 0 14 12 26 19 19 2 -3 -1 -11 -7 -17z m-315 -14 c-3 -3 -12 -4 -19
-1 -8 3 -5 6 6 6 11 1 17 -2 13 -5z m301 -30 c24 -1 32 2 32 15 0 14 2 14 10
1 6 -9 5 -17 -3 -23 -9 -7 -9 -10 1 -14 15 -6 16 -30 0 -39 -8 -5 -9 -2 -5 9
4 11 1 17 -8 17 -8 0 -15 4 -15 9 0 12 -58 25 -97 22 -38 -3 -43 6 -10 18 13
5 30 4 42 -2 11 -6 35 -11 53 -13z m-616 -31 c-3 -16 -7 -22 -10 -15 -4 13 4
42 11 42 2 0 2 -12 -1 -27z m218 16 c0 -8 5 -7 15 1 21 17 24 10 10 -18 -10
-19 -14 -20 -18 -8 -9 23 -30 20 -55 -7 -18 -19 -19 -26 -9 -36 10 -11 8 -13
-10 -8 -14 3 -23 0 -24 -6 0 -7 -4 -3 -8 8 -6 15 -3 22 13 30 11 6 22 19 24
30 2 16 1 17 -7 5 -5 -8 -13 -11 -17 -8 -9 9 -43 -33 -38 -47 3 -7 -7 -11 -23
-11 -22 1 -28 -5 -35 -31 -9 -35 -22 -42 -32 -17 -3 8 -2 12 4 9 6 -3 10 -2
10 3 0 6 -7 12 -15 16 -8 3 -15 15 -15 27 0 15 4 19 15 15 10 -4 19 2 25 17 5
12 9 17 9 11 1 -5 7 -17 14 -25 6 -8 11 -13 10 -10 -3 6 25 31 36 31 5 0 13 9
16 20 5 16 15 20 56 20 29 0 49 -4 49 -11z m-146 -24 c-4 -8 -11 -12 -16 -9
-6 4 -5 10 3 15 19 12 19 11 13 -6z m210 -6 c-3 -6 0 -15 7 -20 11 -7 10 -9
-3 -9 -18 0 -24 20 -11 33 10 11 15 8 7 -4z m116 -4 c7 -9 8 -15 2 -15 -5 0
-12 7 -16 15 -3 8 -4 15 -2 15 2 0 9 -7 16 -15z m-165 -35 c9 8 15 8 20 0 3
-6 11 -8 16 -5 5 3 6 -1 2 -10 -5 -13 -7 -14 -14 -3 -6 9 -9 10 -9 1 0 -8 -7
-10 -17 -6 -20 7 -33 23 -33 38 1 6 5 2 11 -8 8 -14 14 -15 24 -7z m186 -3
c-1 -12 -15 -9 -19 4 -3 6 1 10 8 8 6 -3 11 -8 11 -12z m-30 -4 c0 -5 2 -18 5
-30 3 -17 -1 -23 -14 -23 -19 0 -42 18 -42 33 0 5 7 7 15 3 9 -3 15 0 15 9 0
15 19 22 21 8z m149 -3 c0 -5 -2 -10 -4 -10 -3 0 -8 5 -11 10 -3 6 -1 10 4 10
6 0 11 -4 11 -10z m-280 -34 c0 -2 -7 -9 -15 -16 -13 -11 -14 -10 -9 4 5 14
24 23 24 12z m195 -28 c0 -18 -6 -33 -14 -36 -10 -3 -12 1 -9 15 3 11 1 28 -4
37 -7 12 -5 16 9 16 14 0 18 -8 18 -32z m-389 3 c-8 -12 18 -32 43 -34 11 0
18 -4 16 -8 -7 -10 -52 -2 -75 14 -21 14 -21 16 -3 26 22 13 26 13 19 2z m454
5 c0 -11 -19 -15 -25 -6 -3 5 1 10 9 10 9 0 16 -2 16 -4z m-107 -20 c4 -10 0
-12 -15 -8 -15 4 -17 7 -6 13 17 11 15 11 21 -5z m177 4 c0 -16 -17 -20 -28
-7 -8 10 -6 13 9 14 10 1 19 -2 19 -7z m-376 -11 c-3 -5 -10 -7 -15 -4 -5 4
-9 2 -9 -3 0 -5 -6 -9 -13 -9 -27 0 -13 24 15 25 16 0 26 -4 22 -9z m326 -18
c0 -4 -13 -8 -30 -9 -16 -1 -30 1 -30 5 0 5 14 8 30 9 17 1 30 -2 30 -5z"/>
<path d="M4050 605 c-14 -16 -10 -18 14 -9 9 3 16 10 16 15 0 14 -16 11 -30
-6z"/>
<path d="M4148 773 c-7 -38 -4 -63 8 -59 8 3 14 0 14 -7 0 -7 6 -1 14 13 7 14
11 28 9 32 -7 13 -43 29 -45 21z"/>
<path d="M780 759 c0 -3 9 -14 20 -24 11 -10 20 -26 20 -36 0 -9 6 -19 13 -22
6 -3 3 -5 -9 -4 -15 1 -20 6 -17 18 3 11 -3 19 -16 24 -12 3 -21 14 -21 22 0
9 -3 14 -6 10 -3 -3 -17 -1 -31 4 -21 8 -26 6 -30 -11 -3 -11 -9 -17 -14 -14
-5 3 -9 0 -9 -5 0 -6 7 -11 15 -11 23 0 18 -26 -5 -27 -11 -1 -18 2 -15 8 4 5
-4 9 -16 9 -19 0 -20 -2 -8 -16 8 -9 14 -22 15 -28 0 -6 2 -17 2 -23 1 -7 11
-13 22 -13 11 0 19 3 19 8 -5 28 2 35 15 16 20 -28 31 -74 18 -74 -22 0 -40
12 -36 24 3 8 -5 13 -23 14 -65 2 -85 15 -54 34 22 13 29 38 11 38 -6 0 -9 -3
-8 -7 2 -5 -6 -18 -17 -31 -11 -12 -20 -35 -22 -50 -1 -15 -6 -63 -11 -108
-17 -145 11 -224 94 -265 38 -18 57 -21 116 -17 79 6 106 21 153 87 29 41 30
47 30 152 0 60 2 109 5 109 3 0 13 -17 22 -38 13 -29 17 -64 16 -160 0 -67 -5
-125 -9 -128 -5 -3 -9 -20 -9 -39 0 -19 -4 -37 -10 -40 -6 -4 -5 -13 3 -26 10
-16 9 -21 -3 -29 -10 -7 8 -10 58 -10 46 0 71 4 67 10 -3 6 0 10 7 10 9 0 9 3
-2 10 -8 5 -10 10 -4 10 13 0 13 48 0 69 -7 10 -6 12 4 6 10 -6 12 -4 7 9 -5
14 -3 15 13 6 25 -13 121 -13 157 1 40 15 81 57 94 96 6 18 15 33 20 33 6 0 8
4 5 8 -2 4 -1 14 5 22 6 11 9 7 9 -14 0 -49 44 -111 96 -136 38 -19 57 -22
114 -18 39 3 80 12 94 21 48 32 104 127 75 127 -5 0 -9 5 -9 11 0 6 7 8 16 5
8 -3 12 -2 9 4 -3 6 -3 16 2 23 13 21 13 47 0 47 -8 0 -14 7 -14 15 0 8 4 15
8 15 4 0 9 18 11 40 2 22 0 40 -5 40 -5 0 -6 7 -3 15 3 10 -1 18 -11 22 -9 4
-18 2 -20 -4 -5 -13 -53 29 -53 46 0 7 5 9 10 6 6 -3 10 0 10 8 0 16 27 30 41
21 5 -3 9 -14 9 -25 0 -11 5 -17 10 -14 19 12 10 31 -22 50 -18 10 -27 20 -20
23 7 2 12 13 12 25 0 16 -3 18 -9 8 -6 -10 -10 -10 -16 -1 -6 9 -10 9 -16 -1
-8 -11 -12 -10 -24 5 -7 10 -18 15 -24 11 -6 -3 -11 -1 -11 4 0 20 -19 11 -26
-11 -6 -20 -8 -20 -19 -5 -6 9 -15 14 -18 10 -4 -3 -7 -1 -7 6 0 8 -7 10 -21
6 -15 -5 -19 -4 -15 4 4 6 2 11 -3 11 -6 0 -11 -7 -11 -15 0 -8 -5 -15 -11
-15 -5 0 -7 6 -3 13 5 8 3 8 -9 -2 -9 -7 -14 -18 -10 -24 4 -6 -2 -8 -17 -4
-17 4 -20 3 -12 -5 9 -9 18 -9 36 0 19 8 27 8 36 -3 8 -10 8 -14 -2 -18 -9 -4
-10 -8 -3 -14 17 -13 9 -52 -15 -73 l-23 -20 21 0 c31 0 27 -14 -8 -27 -17 -6
-28 -8 -25 -3 3 4 -4 6 -15 3 -26 -7 -26 9 1 27 11 8 27 20 34 25 17 13 29 55
16 55 -6 0 -10 -6 -9 -12 2 -7 -5 -12 -14 -10 -10 2 -18 -2 -18 -9 0 -6 -8 -1
-19 12 l-18 23 -12 -22 c-6 -12 -9 -22 -6 -22 3 0 1 -9 -5 -20 -6 -11 -15 -18
-20 -15 -6 4 -7 -1 -3 -11 5 -13 3 -16 -10 -11 -9 3 -17 2 -17 -2 0 -5 5 -11
11 -13 5 -2 7 -11 4 -21 -5 -12 -12 -14 -23 -8 -10 4 -24 6 -32 4 -12 -4 -13
-3 -1 5 7 5 10 15 7 21 -10 16 -23 14 -30 -5 -9 -23 11 -43 34 -37 21 6 28
-11 10 -22 -15 -9 -120 79 -120 99 0 6 7 3 14 -6 7 -10 19 -18 25 -18 7 0 9
-5 5 -12 -5 -9 -2 -9 9 1 9 7 17 20 17 28 0 8 4 12 9 9 5 -3 11 0 14 8 4 9 -5
21 -20 31 -14 10 -23 13 -20 8 3 -5 -2 -9 -11 -9 -9 -1 -25 -4 -34 -9 -11 -4
-18 -3 -18 5 0 6 5 8 10 5 6 -3 10 2 10 12 0 11 5 24 10 29 7 7 6 11 -4 11 -8
0 -13 -5 -10 -11 3 -6 -2 -2 -10 8 -9 11 -16 16 -16 11 0 -5 -6 0 -14 11 -8
10 -18 15 -23 11 -8 -8 -9 -13 -12 -39 0 -6 -8 -3 -16 8 -18 24 -19 34 -2 34
8 0 14 7 14 15 0 19 1 19 -27 -5 -13 -11 -20 -20 -15 -20 4 0 2 -7 -5 -15 -15
-19 -50 -3 -50 24 0 20 -29 25 -31 4 -1 -7 -2 -17 -3 -23 -1 -5 2 -10 7 -10 4
0 17 -10 28 -21 16 -16 23 -18 29 -9 5 9 9 9 14 1 10 -16 -3 -33 -20 -27 -8 3
-14 -1 -14 -8 0 -8 6 -17 13 -19 7 -3 5 -6 -5 -6 -12 -1 -18 -9 -18 -26 0 -29
-5 -31 -28 -8 -12 12 -13 18 -4 21 6 2 12 12 12 22 0 10 6 20 13 23 17 6 4 18
-25 22 -12 1 -30 5 -38 9 -11 4 -21 -7 -34 -36 -16 -35 -20 -38 -26 -22 -4 10
-6 33 -5 50 3 31 -28 73 -40 54 -3 -4 1 -10 7 -12 13 -5 19 -58 7 -58 -4 0
-15 12 -24 28 -10 15 -12 21 -4 15 15 -15 29 -17 29 -4 0 5 -8 12 -19 16 -10
3 -18 13 -17 23 1 12 -6 17 -21 16 -13 0 -23 3 -23 8 0 5 -4 7 -9 4 -5 -4 -11
-1 -13 6 -4 12 -58 19 -58 7z m810 -29 c0 -5 -2 -10 -4 -10 -3 0 -8 5 -11 10
-3 6 -1 10 4 10 6 0 11 -4 11 -10z m134 -26 c11 -29 -23 -49 -40 -22 -4 6 -3
8 3 5 6 -4 13 0 16 7 3 8 1 17 -6 20 -7 2 -5 5 4 5 9 1 20 -6 23 -15z m-924
-10 c0 -2 -12 -4 -27 -4 -21 0 -24 3 -14 9 13 8 41 5 41 -5z m50 6 c0 -5 -4
-10 -10 -10 -5 0 -10 5 -10 10 0 6 5 10 10 10 6 0 10 -4 10 -10z m324 -16 c3
-8 2 -12 -4 -9 -6 3 -10 10 -10 16 0 14 7 11 14 -7z m446 12 c0 -3 -4 -8 -10
-11 -5 -3 -10 -1 -10 4 0 6 5 11 10 11 6 0 10 -2 10 -4z m36 -14 c-2 -4 -1
-14 5 -22 8 -13 9 -13 9 0 0 11 3 12 13 2 6 -7 12 -18 12 -25 0 -6 17 -20 37
-30 25 -13 34 -24 31 -35 -4 -8 2 -21 12 -28 13 -10 15 -14 5 -14 -18 0 -1
-17 22 -22 13 -2 15 -7 8 -18 -8 -13 -11 -12 -25 5 -9 11 -21 33 -27 48 -6 15
-13 26 -15 23 -7 -7 -38 25 -38 38 0 6 -16 16 -35 23 -19 7 -31 12 -27 12 4 1
2 7 -5 15 -7 8 -17 11 -22 8 -5 -3 -6 0 -2 7 4 6 11 9 16 6 5 -3 11 -1 15 5 3
5 8 10 11 10 3 0 3 -4 0 -8z m-891 -22 c4 -6 11 -8 16 -5 5 4 9 -1 9 -9 0 -24
-22 -31 -37 -11 -7 11 -13 22 -13 27 0 11 18 10 25 -2z m115 3 c0 -9 -29 -33
-39 -33 -5 0 -13 5 -17 12 -4 6 -3 8 3 5 6 -4 13 -1 16 6 4 12 37 20 37 10z
m190 -43 c0 -4 -7 -10 -15 -14 -10 -4 -15 1 -15 14 0 13 5 18 15 14 8 -4 15
-10 15 -14z m130 16 c0 -11 -19 -15 -25 -6 -3 5 1 10 9 10 9 0 16 -2 16 -4z
m44 -8 c-3 -4 -9 -8 -15 -8 -5 0 -9 4 -9 8 0 5 7 9 15 9 8 0 12 -4 9 -9z
m-304 -8 c0 -5 -2 -10 -4 -10 -3 0 -8 5 -11 10 -3 6 -1 10 4 10 6 0 11 -4 11
-10z m-55 -20 c2 -4 -7 -5 -20 -2 -14 2 -25 8 -25 12 0 10 38 1 45 -10z m-93
-22 c-7 -7 -12 -8 -12 -2 0 14 12 26 19 19 2 -3 -1 -11 -7 -17z m136 14 c14
-9 6 -42 -10 -42 -6 0 -8 6 -5 14 3 7 0 19 -6 25 -13 13 2 15 21 3z m92 -2 c0
-5 -4 -10 -10 -10 -5 0 -10 5 -10 10 0 6 5 10 10 10 6 0 10 -4 10 -10z m-325
-29 c-6 -5 -25 10 -25 20 0 5 6 4 14 -3 8 -7 12 -15 11 -17z m525 18 c0 -5 -4
-8 -9 -5 -5 4 -12 0 -14 -6 -3 -8 -6 -6 -6 5 -1 9 6 17 14 17 8 0 15 -5 15
-11z m450 -5 c0 -2 -7 -4 -15 -4 -8 0 -15 4 -15 10 0 5 7 7 15 4 8 -4 15 -8
15 -10z m-409 -12 c-7 -2 -18 1 -23 6 -8 8 -4 9 13 5 13 -4 18 -8 10 -11z
m-121 0 c0 -5 -7 -9 -15 -9 -8 0 -15 4 -15 9 0 4 7 8 15 8 8 0 15 -4 15 -8z
m-230 -24 c0 -5 5 -6 10 -3 6 3 10 1 10 -4 0 -14 -6 -14 -31 -1 -22 12 -26 32
-4 24 8 -4 15 -10 15 -16z m600 8 c0 -3 -4 -8 -10 -11 -5 -3 -10 -1 -10 4 0 6
5 11 10 11 6 0 10 -2 10 -4z m95 -6 c3 -5 -3 -10 -15 -10 -12 0 -18 5 -15 10
3 6 10 10 15 10 5 0 12 -4 15 -10z m22 -12 c-3 -8 -6 -5 -6 6 -1 11 2 17 5 13
3 -3 4 -12 1 -19z m-977 8 c0 -9 -30 -14 -35 -6 -4 6 3 10 14 10 12 0 21 -2
21 -4z m628 -21 c31 -26 59 -84 41 -86 -5 -1 -13 -2 -18 -3 -6 0 -16 -7 -23
-14 -10 -10 -10 -15 2 -23 11 -8 7 -9 -17 -5 -32 5 -60 -13 -45 -29 4 -5 2 -5
-5 -1 -9 5 -9 14 -3 31 6 16 6 25 0 25 -6 0 -10 -4 -10 -10 0 -5 -5 -10 -11
-10 -5 0 -8 4 -5 9 3 5 -1 11 -9 15 -9 3 -15 0 -15 -8 0 -8 8 -17 18 -21 15
-6 15 -8 -6 -25 -19 -16 -21 -22 -11 -44 14 -30 33 -35 24 -7 -6 20 20 38 30
21 4 -6 1 -10 -5 -10 -7 0 -10 -7 -6 -15 3 -10 -3 -17 -19 -21 -15 -4 -25 -13
-25 -24 0 -32 -17 -31 -44 1 -19 23 -24 35 -16 44 6 7 8 20 4 29 -3 9 -1 16 4
16 6 0 9 9 7 20 -2 11 1 23 7 26 6 4 8 2 4 -4 -3 -6 -3 -13 2 -16 4 -2 13 8
19 23 8 21 7 32 -4 47 -8 10 -17 17 -21 14 -4 -3 -8 5 -10 16 -5 33 41 64 94
64 31 0 51 -7 72 -25z m-186 -7 c-7 -7 -12 -8 -12 -2 0 14 12 26 19 19 2 -3
-1 -11 -7 -17z m-393 -19 c-22 -13 -31 -11 -17 5 7 8 17 12 22 9 4 -3 2 -9 -5
-14z m65 -4 c3 -8 12 -15 20 -15 10 0 13 6 9 17 -4 11 -3 14 5 9 7 -4 12 -15
13 -24 0 -14 2 -13 9 3 8 20 9 20 9 -1 1 -19 -5 -21 -61 -22 -75 -1 -85 4 -56
28 28 23 44 25 52 5z m93 -2 c-4 -3 1 -12 11 -19 16 -12 15 -13 -5 -14 -16 0
-23 6 -23 20 0 11 5 20 12 20 6 0 8 -3 5 -7z m581 0 c9 6 13 8 11 2 -18 -41
-34 -65 -41 -65 -5 0 -7 4 -3 9 3 5 1 12 -4 15 -5 4 -8 14 -6 24 2 9 4 19 4
22 1 2 6 -1 13 -8 9 -9 15 -9 26 1z m150 -6 c6 3 12 -1 12 -7 0 -7 6 -10 13
-7 8 3 19 2 26 -3 7 -4 -19 -7 -58 -7 -57 1 -71 4 -71 16 0 13 2 13 9 3 7 -11
9 -10 14 3 5 11 11 13 24 7 10 -5 24 -7 31 -5z m72 3 c0 -5 -2 -10 -4 -10 -3
0 -8 5 -11 10 -3 6 -1 10 4 10 6 0 11 -4 11 -10z m-690 -10 c0 -5 -4 -10 -10
-10 -5 0 -10 5 -10 10 0 6 5 10 10 10 6 0 10 -4 10 -10z m730 -11 c0 -5 -7 -9
-15 -9 -8 0 -15 7 -15 15 0 9 6 12 15 9 8 -4 15 -10 15 -15z m-570 -30 c0 -6
-6 -9 -14 -6 -7 3 -19 0 -25 -6 -8 -8 -11 -7 -11 6 0 11 8 17 25 17 14 0 25
-5 25 -11z m-430 -20 c0 -6 6 -9 14 -6 16 7 16 -30 0 -41 -7 -4 -12 -16 -12
-27 1 -38 -2 -45 -21 -45 -22 0 -31 26 -31 88 0 38 2 42 25 42 14 0 25 -5 25
-11z m168 -6 c2 -8 -6 -13 -21 -13 -18 0 -27 -7 -31 -26 -5 -19 -11 -24 -25
-19 -12 3 -21 0 -25 -10 -6 -17 -26 -12 -26 6 0 6 4 8 9 5 5 -3 12 1 15 10 8
21 -3 56 -15 49 -5 -4 -9 -1 -9 5 0 16 122 9 128 -7z m714 5 c-8 -8 -9 -15 -1
-25 9 -9 8 -17 -1 -28 -11 -13 -10 -14 1 -10 9 3 14 -2 15 -17 0 -13 2 -29 5
-37 2 -7 -2 -16 -10 -18 -9 -4 -11 0 -7 13 10 32 -8 48 -48 41 l-36 -6 2 50 1
49 45 0 c35 0 43 -3 34 -12z m166 1 c-2 -6 -7 -10 -12 -9 -5 1 -12 -4 -17 -11
-4 -7 -15 -14 -23 -15 -9 -1 -14 2 -10 7 3 5 1 9 -5 9 -5 0 -13 -5 -16 -10 -4
-6 -11 -8 -17 -4 -5 4 -8 -2 -6 -14 2 -12 -1 -20 -7 -19 -5 1 -9 8 -7 15 2 6
-4 12 -13 12 -15 0 -21 31 -8 43 11 12 145 8 141 -4z m-858 -50 c0 -7 -32 -29
-43 -29 -3 0 -7 7 -10 14 -4 10 -1 13 9 9 8 -3 14 1 14 11 0 10 6 13 15 10 8
-4 15 -10 15 -15z m80 -1 c0 -4 -7 -8 -15 -8 -8 0 -15 -5 -15 -12 0 -6 -3 -9
-6 -5 -11 10 3 34 20 34 9 0 16 -4 16 -9z m287 -3 c0 -8 -4 -15 -9 -15 -4 0
-8 7 -8 15 0 8 4 15 8 15 5 0 9 -7 9 -15z m424 -28 c-8 -8 -11 -7 -11 4 0 20
13 34 18 19 3 -7 -1 -17 -7 -23z m-586 -7 c3 -5 1 -10 -4 -10 -6 0 -11 5 -11
10 0 6 2 10 4 10 3 0 8 -4 11 -10z m-179 -28 c-18 -16 -18 -16 -6 6 6 13 14
21 18 18 3 -4 -2 -14 -12 -24z m633 4 c23 -13 23 -13 3 -18 -20 -5 -42 7 -42
24 0 11 11 9 39 -6z m-794 -5 c3 -5 1 -12 -4 -15 -5 -3 -11 1 -15 9 -6 16 9
21 19 6z m552 -16 c-19 -19 -27 -19 -27 -1 0 8 8 16 18 18 24 6 27 1 9 -17z
m416 -3 c-3 -12 -9 -22 -14 -22 -5 0 -3 11 3 25 13 30 20 28 11 -3z m-923 8
c0 -5 -2 -10 -4 -10 -3 0 -8 5 -11 10 -3 6 -1 10 4 10 6 0 11 -4 11 -10z m90
0 c0 -5 -4 -10 -10 -10 -5 0 -10 5 -10 10 0 6 5 10 10 10 6 0 10 -4 10 -10z
m861 -13 c-10 -9 -11 -8 -5 6 3 10 9 15 12 12 3 -3 0 -11 -7 -18z m-1051 5 c0
-5 11 -14 25 -20 14 -6 25 -16 25 -22 0 -13 -34 4 -61 31 -15 15 -16 19 -4 19
8 0 15 -4 15 -8z m170 -19 c0 -3 -7 -2 -16 1 -11 4 -15 2 -11 -8 7 -17 -9 -24
-43 -20 -14 1 -29 3 -35 3 -5 1 1 8 14 17 19 14 25 14 32 3 8 -12 11 -11 19 3
9 15 40 15 40 1z m408 -8 c-2 -6 -6 -9 -10 -7 -5 1 -8 -3 -8 -9 0 -5 -4 -7
-10 -4 -6 4 -5 11 3 20 13 16 30 15 25 0z m314 3 c19 2 28 -2 28 -12 0 -12 -7
-13 -32 -5 -17 5 -36 14 -42 20 -8 9 -7 10 4 4 8 -5 27 -8 42 -7z m-492 -17
c0 -6 -4 -13 -10 -16 -5 -3 -10 1 -10 9 0 9 5 16 10 16 6 0 10 -4 10 -9z m130
-1 c0 -5 -5 -10 -11 -10 -5 0 -7 5 -4 10 3 6 8 10 11 10 2 0 4 -4 4 -10z m450
1 c0 -5 -11 -8 -25 -8 -13 0 -22 3 -19 8 3 5 14 9 25 9 10 0 19 -4 19 -9z
m-580 -63 c0 -13 -5 -30 -10 -38 -7 -11 -10 -5 -10 23 0 20 5 37 10 37 6 0 10
-10 10 -22z"/>
<path d="M661 384 c0 -11 3 -14 6 -6 3 7 2 16 -1 19 -3 4 -6 -2 -5 -13z"/>
<path d="M780 369 c0 -5 5 -7 10 -4 6 3 10 8 10 11 0 2 -4 4 -10 4 -5 0 -10
-5 -10 -11z"/>
<path d="M1525 400 c-3 -5 -2 -10 4 -10 5 0 13 5 16 10 3 6 2 10 -4 10 -5 0
-13 -4 -16 -10z"/>
<path d="M1611 406 c2 -2 14 -8 26 -14 16 -9 22 -9 26 2 4 9 -4 13 -25 14 -16
0 -28 -1 -27 -2z"/>
<path d="M1070 766 c0 -2 7 -7 16 -10 8 -3 12 -2 9 4 -6 10 -25 14 -25 6z"/>
<path d="M1638 763 c7 -3 16 -2 19 1 4 3 -2 6 -13 5 -11 0 -14 -3 -6 -6z"/>
<path d="M1215 750 c-3 -5 1 -10 10 -10 9 0 13 5 10 10 -3 6 -8 10 -10 10 -2
0 -7 -4 -10 -10z"/>
<path d="M1273 753 c4 -3 2 -14 -3 -23 -8 -15 -4 -20 20 -29 20 -6 30 -7 30 0
0 6 4 8 8 5 4 -2 14 -1 22 5 10 6 11 9 3 9 -7 0 -13 9 -13 20 0 11 -5 20 -11
20 -5 0 -7 -5 -3 -12 4 -7 3 -8 -4 -4 -15 9 -57 17 -49 9z"/>
<path d="M2572 739 c2 -7 10 -15 17 -17 8 -3 12 1 9 9 -2 7 -10 15 -17 17 -8
3 -12 -1 -9 -9z"/>
<path d="M1043 721 c0 -11 5 -17 9 -15 11 7 10 34 -1 34 -6 0 -9 -9 -8 -19z"/>
<path d="M2620 731 c0 -5 9 -7 20 -4 11 3 20 7 20 9 0 2 -9 4 -20 4 -11 0 -20
-4 -20 -9z"/>
<path d="M4080 725 c0 -17 23 -35 35 -27 12 9 18 32 8 33 -5 0 -16 2 -25 4
-10 2 -18 -3 -18 -10z"/>
<path d="M2550 710 c-12 -8 -9 -10 13 -10 16 0 26 4 22 10 -8 12 -16 12 -35 0z"/>
<path d="M1360 684 c0 -10 -6 -14 -15 -10 -8 3 -15 1 -15 -4 0 -5 10 -10 23
-12 12 -2 23 -9 23 -15 1 -7 2 -17 3 -23 0 -5 10 -14 21 -20 17 -9 20 -8 18
14 -1 14 -10 27 -20 29 -11 3 -18 15 -18 31 0 14 -4 26 -10 26 -5 0 -10 -7
-10 -16z"/>
<path d="M2601 686 c-10 -12 -8 -13 8 -9 12 3 21 9 21 14 0 14 -16 11 -29 -5z"/>
<path d="M3877 682 c-10 -2 -17 -11 -15 -19 3 -18 44 -28 53 -13 3 6 -2 10
-12 10 -14 0 -15 2 -4 9 16 10 3 19 -22 13z"/>
<path d="M3226 672 c-7 -11 6 -26 24 -30 12 -2 11 1 -2 11 -10 8 -15 17 -11
20 3 4 4 7 0 7 -3 0 -8 -4 -11 -8z"/>
<path d="M1505 660 c3 -5 8 -10 11 -10 2 0 4 5 4 10 0 6 -5 10 -11 10 -5 0 -7
-4 -4 -10z"/>
<path d="M3140 594 c0 -8 5 -12 10 -9 6 3 10 10 10 16 0 5 -4 9 -10 9 -5 0
-10 -7 -10 -16z"/>
</g>
</svg>
